<?xml version="1.0" encoding="UTF-8" standalone="no"?>
<svg
   xmlns:dc="http://purl.org/dc/elements/1.1/"
   xmlns:cc="http://creativecommons.org/ns#"
   xmlns:rdf="http://www.w3.org/1999/02/22-rdf-syntax-ns#"
   xmlns:svg="http://www.w3.org/2000/svg"
   xmlns="http://www.w3.org/2000/svg"
   xmlns:sodipodi="http://sodipodi.sourceforge.net/DTD/sodipodi-0.dtd"
   xmlns:inkscape="http://www.inkscape.org/namespaces/inkscape"
   width="30cm"
   height="30cm"
   viewBox="0 0 300 299.99999"
   version="1.1"
   id="svg197"
   inkscape:version="1.0.2 (e86c870879, 2021-01-15)"
   sodipodi:docname="logo.svg">
  <defs
     id="defs191">
    <clipPath
       clipPathUnits="userSpaceOnUse"
       id="clipPath1329">
      <path
         style="display:none;fill:none;stroke:#000000;stroke-width:0.264583px;stroke-linecap:butt;stroke-linejoin:miter;stroke-opacity:1"
         d="m 82.675775,186.55114 -10.272212,-12.41643 14.603243,3.55071 13.318034,9.94697 -1.056401,-17.0503 6.496331,-11.62762 3.4782,22.28475 13.36369,-0.77978 11.97148,-6.97892 -1.01949,15.21082 27.93176,-37.39508 -45.52979,-16.35344 -43.850361,0.38587 -23.123721,29.73102 3.674539,30.38364 z"
         id="path1331" />
      <path
         id="lpe_path-effect1333"
         style="fill:none;stroke:#000000;stroke-width:0.264583px;stroke-linecap:butt;stroke-linejoin:miter;stroke-opacity:1"
         class="powerclip"
         d="M 59.761218,140.01097 H 143.84721 V 288.80416 H 59.761218 Z m 22.914557,46.54017 -10.272212,-12.41643 14.603243,3.55071 13.318034,9.94697 -1.056401,-17.0503 6.496331,-11.62762 3.4782,22.28475 13.36369,-0.77978 11.97148,-6.97892 -1.01949,15.21082 27.93176,-37.39508 -45.52979,-16.35344 -43.850361,0.38587 -23.123721,29.73102 3.674539,30.38364 z" />
    </clipPath>
    <inkscape:path-effect
       effect="powerclip"
       id="path-effect1319"
       is_visible="true"
       lpeversion="1"
       inverse="true"
       flatten="false"
       hide_clip="false"
       message="Use fill-rule evenodd on &lt;b&gt;fill and stroke&lt;/b&gt; dialog if no flatten result after convert clip to paths." />
    <inkscape:path-effect
       effect="powerclip"
       id="path-effect1333"
       is_visible="true"
       lpeversion="1"
       inverse="true"
       flatten="false"
       hide_clip="false"
       message="Use fill-rule evenodd on &lt;b&gt;fill and stroke&lt;/b&gt; dialog if no flatten result after convert clip to paths." />
    <clipPath
       clipPathUnits="userSpaceOnUse"
       id="clipath_lpe_path-effect1319">
      <path
         style="display:none;fill:none;stroke:#000000;stroke-width:0.264583px;stroke-linecap:butt;stroke-linejoin:miter;stroke-opacity:1"
         d="m 82.675775,186.55114 -10.272212,-12.41643 14.603243,3.55071 13.318034,9.94697 -1.056401,-17.0503 6.496331,-11.62762 3.4782,22.28475 13.36369,-0.77978 11.97148,-6.97892 -1.01949,15.21082 27.93176,-37.39508 -45.52979,-16.35344 -43.850361,0.38587 -23.123721,29.73102 3.674539,30.38364 z"
         id="path1355" />
      <path
         id="lpe_path-effect1319"
         style="fill:none;stroke:#000000;stroke-width:0.264583px;stroke-linecap:butt;stroke-linejoin:miter;stroke-opacity:1"
         class="powerclip"
         d="M 59.761218,140.01097 H 143.84721 V 288.80416 H 59.761218 Z m 22.914557,46.54017 -10.272212,-12.41643 14.603243,3.55071 13.318034,9.94697 -1.056401,-17.0503 6.496331,-11.62762 3.4782,22.28475 13.36369,-0.77978 11.97148,-6.97892 -1.01949,15.21082 27.93176,-37.39508 -45.52979,-16.35344 -43.850361,0.38587 -23.123721,29.73102 3.674539,30.38364 z" />
    </clipPath>
  </defs>
  <sodipodi:namedview
     id="base"
     pagecolor="#ffffff"
     bordercolor="#666666"
     borderopacity="1.0"
     inkscape:pageopacity="0.0"
     inkscape:pageshadow="2"
     inkscape:zoom="0.41325259"
     inkscape:cx="337.6247"
     inkscape:cy="602.28375"
     inkscape:document-units="mm"
     inkscape:current-layer="layer1"
     inkscape:document-rotation="0"
     showgrid="false"
     inkscape:snap-bbox="false"
     inkscape:snap-global="true"
     inkscape:snap-nodes="true"
     inkscape:object-paths="true"
     inkscape:object-nodes="true"
     inkscape:window-width="1366"
     inkscape:window-height="736"
     inkscape:window-x="0"
     inkscape:window-y="0"
     inkscape:window-maximized="1"
     units="cm" />
  <metadata
     id="metadata194">
    <rdf:RDF>
      <cc:Work
         rdf:about="">
        <dc:format>image/svg+xml</dc:format>
        <dc:type
           rdf:resource="http://purl.org/dc/dcmitype/StillImage" />
        <dc:title />
      </cc:Work>
    </rdf:RDF>
  </metadata>
  <g
     inkscape:label="Layer 1"
     inkscape:groupmode="layer"
     id="layer1">
    <g
       id="g2889"
       transform="matrix(0.57229428,0,-0.16868582,0.58944411,41.812582,90.393903)"
       style="stroke-width:1.72175">
      <g
         id="g2857"
         style="stroke-width:1.72175">
        <g
           id="g2842"
           style="stroke-width:1.72175">
          <path
             style="fill:#0f74bc;fill-opacity:1;stroke-width:1.72175"
             d="m 50.995387,292.8956 c -0.615624,-0.68834 -2.205449,-2.4707 -3.532965,-3.96085 -1.327515,-1.49012 -3.121713,-3.47353 -3.987102,-4.40756 -0.893907,-0.9648 -1.434146,-1.92364 -1.250912,-2.22011 0.187019,-0.30282 0.124786,-0.39961 -0.148841,-0.23065 -0.639619,0.39532 -1.640572,-0.88216 -1.221913,-1.55954 0.197927,-0.32046 0.14371,-0.42411 -0.13249,-0.25343 -0.257271,0.15912 -1.765551,-1.27644 -3.351782,-3.1898 -4.398064,-5.3051 -4.755646,-5.78509 -4.007441,-5.3792 0.368874,0.20017 0.0096,-0.18093 -0.800493,-0.84663 -1.416215,-1.16525 -2.069274,-2.44782 -0.905327,-1.778 0.328742,0.18926 0.407784,0.15302 0.188622,-0.0866 -0.207549,-0.22647 -0.53424,-0.41209 -0.726168,-0.41209 -0.788206,0 -5.310704,-6.41145 -4.848546,-6.87363 0.161356,-0.16137 0.293522,-0.1155 0.293522,0.10232 0,0.21781 0.894483,-0.48186 1.98776,-1.55479 l 1.987729,-1.95084 2.652114,4.82651 c 4.633489,8.43249 5.121344,9.27422 7.567863,13.05833 1.318791,2.03977 2.552156,3.9722 2.740812,4.29432 0.188622,0.3221 0.0709,0.93321 -0.261763,1.35799 -0.528755,0.67526 -0.515988,0.70317 0.101686,0.22232 0.601156,-0.46813 0.999671,-0.097 2.672964,2.48965 1.081567,1.67189 2.958176,4.51664 4.170209,6.32165 1.212031,1.80501 2.142477,3.28184 2.067669,3.28184 -0.07474,0 -0.639715,-0.56317 -1.255339,-1.25149 z M 31.995706,263.81838 c 0.266575,-0.49793 0.382699,-0.90533 0.258234,-0.90533 -0.124471,0 -0.444355,0.4074 -0.710834,0.90533 -0.266574,0.49796 -0.382667,0.90536 -0.258233,0.90536 0.124471,0 0.444355,-0.4074 0.710833,-0.90536 z m 90.307114,6.28372 c -10.82886,-0.82362 -22.827103,-3.28047 -31.555833,-6.46157 -5.860824,-2.13596 -13.599764,-6.05949 -13.20664,-6.69561 0.194718,-0.31533 0.110349,-0.38285 -0.221664,-0.17771 -1.424778,0.88056 -12.559802,-9.00673 -17.185208,-15.25953 -2.627957,-3.55259 -6.074276,-10.23713 -5.806259,-11.26198 0.119654,-0.45722 0.05871,-0.73326 -0.135048,-0.61347 -0.417793,0.25823 -1.97663,-4.30354 -2.781004,-8.13823 -0.950976,-4.53372 -0.727707,-14.25032 0.436271,-18.98511 1.914878,-7.78925 6.099169,-16.09626 12.146403,-24.11417 3.175125,-4.20982 12.332173,-13.49592 13.753101,-13.94692 0.480412,-0.15237 0.873441,-0.43601 0.873441,-0.63006 0,-0.3963 9.21559,-6.82318 9.806386,-6.8389 0.208191,-0.006 0.887876,-0.40839 1.510301,-0.89527 1.263711,-0.98846 2.033665,-1.17969 1.541128,-0.38271 -0.201776,0.32639 -0.124142,0.39962 0.206908,0.19504 0.291595,-0.18029 0.42052,-0.50468 0.286784,-0.72114 -0.133776,-0.21654 2.052656,-1.54938 4.858779,-2.96196 2.806124,-1.41263 5.343614,-2.76333 5.638934,-3.00158 0.95358,-0.76938 4.18853,1.74429 3.55793,2.7646 -0.17259,0.27909 -0.0289,0.37382 0.34991,0.22873 0.35425,-0.13599 0.76473,0.067 0.91216,0.45135 0.18862,0.49145 -7.11738,8.08067 -24.646125,25.60172 -13.702801,13.69673 -25.09609,24.9032 -25.318461,24.9032 -0.222305,0 -0.291916,0.29255 -0.154619,0.65039 0.137292,0.35775 0.537126,0.54012 0.88855,0.40526 0.351391,-0.13479 0.52622,-0.42755 0.388474,-0.65043 -0.137622,-0.22294 -0.03465,-0.4307 0.229043,-0.4618 0.263687,-0.0322 0.733994,-0.0866 1.045222,-0.12357 0.311164,-0.0365 0.501295,-0.43909 0.422381,-0.89416 -0.08789,-0.50634 0.04844,-0.70892 0.350717,-0.52203 0.271707,0.1681 0.464982,0.13734 0.429342,-0.0676 -0.163281,-0.94042 0.104574,-1.11429 0.834561,-0.54175 0.705638,0.5534 0.729087,0.54051 0.214928,-0.11804 -0.481919,-0.61706 -0.444515,-0.79769 0.226477,-1.09256 0.442046,-0.19439 1.007401,-0.37542 1.256397,-0.40252 0.248931,-0.0256 0.388089,-0.42159 0.30924,-0.87669 -0.08789,-0.50629 0.04844,-0.7089 0.350685,-0.52201 0.271707,0.16809 0.465014,0.13763 0.429342,-0.0678 -0.163281,-0.94042 0.104574,-1.11429 0.834562,-0.54174 0.705636,0.55339 0.729118,0.5405 0.214606,-0.11803 -0.48192,-0.61708 -0.444516,-0.79771 0.226477,-1.09258 0.442045,-0.1944 1.007434,-0.37542 1.256397,-0.40253 0.248931,-0.0256 0.388122,-0.42157 0.30924,-0.87668 -0.08789,-0.50629 0.04844,-0.7089 0.350716,-0.52201 0.271707,0.16809 0.464983,0.13763 0.429342,-0.0676 -0.163281,-0.94043 0.104574,-1.11429 0.83453,-0.54175 0.705637,0.55338 0.729119,0.54049 0.214928,-0.11804 -0.48192,-0.61706 -0.444484,-0.79771 0.226476,-1.09256 0.442045,-0.19441 1.007433,-0.37543 1.256398,-0.40253 0.248931,-0.0257 0.38812,-0.42158 0.309238,-0.87668 -0.08789,-0.50631 0.04844,-0.70892 0.350718,-0.52202 0.271707,0.16809 0.464981,0.13764 0.429343,-0.0676 -0.163282,-0.94038 0.104573,-1.11428 0.834561,-0.54174 0.705636,0.55343 0.729085,0.5405 0.214928,-0.11804 -0.48192,-0.61706 -0.444516,-0.79769 0.226475,-1.09256 0.442046,-0.1944 1.007403,-0.37542 1.256366,-0.40253 0.248931,-0.0257 0.388121,-0.42159 0.309239,-0.87668 -0.08789,-0.50629 0.04844,-0.7089 0.350717,-0.52202 0.271707,0.1681 0.465014,0.13764 0.429342,-0.0676 -0.163281,-0.9404 0.104574,-1.1143 0.834562,-0.54175 0.705636,0.55342 0.729087,0.54052 0.214927,-0.11803 -0.481919,-0.61711 -0.444515,-0.79774 0.226478,-1.09258 0.442045,-0.1944 1.007433,-0.37545 1.256396,-0.40253 0.248932,-0.0257 0.388121,-0.4216 0.30924,-0.87671 -0.08789,-0.50629 0.04844,-0.7089 0.350716,-0.52201 0.271708,0.16809 0.464983,0.13763 0.429343,-0.0676 -0.163281,-0.94039 0.104573,-1.11429 0.83453,-0.54171 0.705636,0.55338 0.729118,0.54049 0.214606,-0.11804 -0.48192,-0.61706 -0.444483,-0.79771 0.226477,-1.09256 0.442046,-0.19441 1.007434,-0.37547 1.256397,-0.40253 0.248931,-0.0257 0.388122,-0.42161 0.30924,-0.87668 -0.08789,-0.50634 0.04844,-0.70892 0.350716,-0.52206 0.271707,0.16809 0.464983,0.13764 0.429343,-0.0676 -0.163282,-0.94039 0.104573,-1.11429 0.834561,-0.54172 0.705638,0.5534 0.729087,0.54051 0.214928,-0.11804 -0.481951,-0.61706 -0.444516,-0.79769 0.226155,-1.09256 0.442046,-0.1944 1.007402,-0.37545 1.256365,-0.40253 0.248932,-0.0257 0.388122,-0.42161 0.30924,-0.87668 -0.08789,-0.50633 0.04844,-0.7089 0.350717,-0.52204 0.271707,0.16809 0.465014,0.13763 0.429342,-0.0678 -0.16328,-0.94042 0.104574,-1.11429 0.834561,-0.54175 0.705638,0.5534 0.729087,0.5405 0.214928,-0.11804 -0.481919,-0.61707 -0.444515,-0.79771 0.226477,-1.09258 0.442046,-0.19439 1.007434,-0.37544 1.256397,-0.40252 0.248931,-0.0257 0.388122,-0.42162 0.30924,-0.87668 -0.08789,-0.50633 0.04844,-0.70891 0.350716,-0.52205 0.271707,0.1681 0.464983,0.13764 0.429343,-0.0676 -0.163282,-0.94043 0.104573,-1.1143 0.83453,-0.54175 0.705636,0.55339 0.729118,0.54049 0.214927,-0.11804 -0.481919,-0.61707 -0.444515,-0.7977 0.226476,-1.09257 0.442046,-0.1944 1.007434,-0.37542 1.256398,-0.40253 0.248932,-0.0257 0.388121,-0.42157 0.309239,-0.87668 -0.08789,-0.50632 0.04844,-0.7089 0.350717,-0.52202 0.271708,0.1681 0.464982,0.13764 0.429343,-0.0676 -0.163281,-0.94043 0.104574,-1.11428 0.834561,-0.54174 0.705637,0.55338 0.729086,0.54049 0.214928,-0.11804 -0.481952,-0.61706 -0.444515,-0.79771 0.226476,-1.09256 0.442045,-0.19442 1.007402,-0.37542 1.256365,-0.40253 0.248931,-0.0257 0.388122,-0.42159 0.30924,-0.87668 -0.08789,-0.50631 0.04844,-0.70892 0.350716,-0.52202 0.271707,0.16808 0.464983,0.13764 0.429343,-0.0678 -0.163282,-0.94041 0.104573,-1.11428 0.834561,-0.54175 0.705638,0.55341 0.729087,0.54051 0.214928,-0.11803 -0.481951,-0.61708 -0.444516,-0.79771 0.226477,-1.09258 0.442045,-0.1944 1.007401,-0.37542 1.256365,-0.40253 0.248932,-0.0257 0.388126,-0.42158 0.309239,-0.87668 -0.08789,-0.50629 0.04844,-0.7089 0.350717,-0.52201 0.27171,0.16809 0.46498,0.13763 0.42934,-0.0676 -0.16328,-0.94039 0.10458,-1.11429 0.83453,-0.54174 0.70564,0.55338 0.72912,0.54049 0.21493,-0.11804 -0.48192,-0.61707 -0.44452,-0.79771 0.22648,-1.09258 0.44204,-0.19439 1.00743,-0.37542 1.25639,-0.40252 0.24893,-0.0257 0.38813,-0.42157 0.30924,-0.87669 -0.0879,-0.50629 0.0484,-0.7089 0.35072,-0.52201 0.27171,0.16809 0.46498,0.13764 0.42934,-0.0676 -0.16328,-0.94039 0.10458,-1.11429 0.83453,-0.54175 0.68726,0.539 0.72867,0.53135 0.31277,-0.0577 -0.36624,-0.51851 -0.23257,-0.91585 0.56584,-1.6813 0.57495,-0.55128 1.04538,-0.8762 1.04538,-0.722 0,0.1543 0.38716,-0.0703 0.86039,-0.49835 0.5632,-0.50969 0.96332,-0.61212 1.15836,-0.2964 0.16392,0.2653 0.0321,0.49032 -0.29448,0.50029 -0.32589,0.009 -0.0257,0.32518 0.66573,0.70048 0.69204,0.37532 1.13979,0.87408 0.99499,1.10839 -0.14469,0.23416 0.0289,0.31405 0.38385,0.17772 0.70878,-0.27204 3.58891,2.87502 3.20287,3.49962 -0.12582,0.20339 0.0625,0.25823 0.41847,0.12163 0.70878,-0.27203 3.58891,2.87502 3.20287,3.49964 -0.12582,0.20337 0.0625,0.25823 0.41847,0.12163 0.70879,-0.27203 3.58891,2.87507 3.20287,3.49966 -0.12567,0.20339 0.0625,0.25824 0.41848,0.12163 0.70873,-0.27202 3.5889,2.87506 3.20286,3.49967 -0.12581,0.20337 0.0625,0.25823 0.41848,0.12163 0.67714,-0.25983 3.59734,2.86139 3.23121,3.45374 -0.10995,0.17836 0.13629,0.29608 0.54792,0.26208 0.4115,-0.034 1.42782,0.81948 2.25847,1.89695 0.83065,1.07745 1.51027,1.80583 1.51027,1.61859 0,-0.18734 0.49606,0.12581 1.10235,0.69518 l 1.10236,1.03564 -0.98919,1.01369 c -0.54405,0.55753 -5.06321,4.04397 -10.04254,7.74765 -4.97933,3.70369 -10.4061,8.12896 -12.05944,9.83394 -1.65337,1.705 -3.11491,2.87546 -3.24791,2.60098 -0.13602,-0.281 -0.18381,-0.24668 -0.10939,0.0782 0.0728,0.31758 -0.52243,1.5019 -1.3228,2.6321 -6.76169,9.54842 -5.64208,22.49727 3.01538,34.8747 1.07511,1.53709 2.15844,3.09724 2.40742,3.46697 0.49404,0.73371 1.29954,1.61546 5.50176,6.02254 3.53023,3.70234 5.41672,5.43334 9.72115,8.92005 3.50274,2.83727 13.47231,9.98118 15.27684,10.94695 0.5423,0.29031 0.87511,0.70708 0.73958,0.92637 -0.13539,0.21942 -0.006,0.54607 0.28358,0.72622 0.33098,0.20468 0.40872,0.13121 0.2069,-0.19504 -0.44489,-0.7198 0.22873,-0.6305 1.28812,0.17067 0.78061,0.59045 -0.20466,0.65748 -8.82702,0.6008 -5.33813,-0.035 -11.94638,-0.23418 -14.68501,-0.44249 z m -16.64494,-4.29387 c -0.15045,-0.15044 -0.54085,-0.1665 -0.86764,-0.0356 -0.36111,0.14467 -0.25374,0.25182 0.27364,0.27363 0.47717,0.0193 0.74454,-0.0872 0.59413,-0.23771 z M 77.488765,254.31238 c -0.153979,-0.24893 -0.522371,-0.44955 -0.818875,-0.44573 -0.323931,0.003 -0.268178,0.1822 0.139865,0.44573 0.869624,0.56199 1.026329,0.56199 0.678979,0 z M 55.081741,225.34169 c 0,-0.24894 -0.21589,-0.45267 -0.479385,-0.45267 -0.263687,0 -0.353475,0.2037 -0.199529,0.45267 0.153977,0.24893 0.369611,0.45266 0.479385,0.45266 0.109705,0 0.199529,-0.2037 0.199529,-0.45266 z m 7.544447,-22.83977 c 0,-0.36252 -0.173226,-0.55213 -0.384593,-0.42138 -0.211398,0.1309 -0.267536,0.42732 -0.124142,0.65908 0.36602,0.59224 0.508769,0.52555 0.508769,-0.2377 z m 3.62134,-3.62134 c 0,-0.36253 -0.172904,-0.55214 -0.384591,-0.42138 -0.2114,0.1309 -0.267538,0.42731 -0.124142,0.65908 0.366019,0.59224 0.50877,0.52558 0.50877,-0.2377 z m 3.621341,-3.62135 c 0,-0.36249 -0.172905,-0.55213 -0.384592,-0.42137 -0.211399,0.1309 -0.267537,0.42731 -0.124142,0.65908 0.366019,0.59224 0.508769,0.52558 0.508769,-0.23771 z m 3.62134,-3.62134 c 0,-0.36247 -0.172903,-0.5521 -0.384624,-0.42137 -0.211398,0.1309 -0.267536,0.42731 -0.124142,0.65908 0.366051,0.59227 0.508802,0.52557 0.508802,-0.23771 z m -14.37854,-4.06254 c -0.119011,-0.11893 -0.486218,0.23256 -0.815827,0.78137 -0.572573,0.95348 -0.562918,0.96314 0.216532,0.21654 0.448718,-0.42977 0.718404,-0.87884 0.599295,-0.99791 z m 17.999882,0.4412 c 0,-0.36248 -0.172905,-0.5521 -0.384624,-0.42138 -0.2114,0.13091 -0.267538,0.42732 -0.124142,0.65909 0.366051,0.59227 0.5088,0.52559 0.5088,-0.23771 z m 48.780879,-1.55295 c 0.13629,-0.22072 -0.10622,-0.67909 -0.53911,-1.01851 -0.69538,-0.54515 -0.72165,-0.53306 -0.2252,0.10367 0.30892,0.39634 0.42787,0.85468 0.26401,1.01851 -0.16393,0.16392 -0.17419,0.29769 -0.0224,0.29769 0.15141,0 0.38668,-0.18061 0.5231,-0.40141 z m -45.159539,-2.06838 c 0,-0.36249 -0.173226,-0.55211 -0.384624,-0.42139 -0.211399,0.13091 -0.267536,0.42732 -0.124142,0.65909 0.366051,0.59227 0.508802,0.52559 0.508802,-0.2377 z m 3.621341,-3.62134 c 0,-0.36249 -0.172905,-0.55211 -0.384624,-0.42139 -0.2114,0.13091 -0.267537,0.42732 -0.124142,0.65908 0.366051,0.59227 0.508769,0.52559 0.508769,-0.23769 z m 48.976298,-0.39714 c 0.37434,-0.451 0.35021,-0.60356 -0.0956,-0.60356 -0.32801,0 -0.59638,0.27171 -0.59638,0.60356 0,0.33195 0.0429,0.60357 0.0956,0.60357 0.0527,0 0.32088,-0.27171 0.59636,-0.60357 z m -45.354958,-3.2242 c 0,-0.36249 -0.172903,-0.55211 -0.384624,-0.42139 -0.211398,0.1309 -0.267536,0.42732 -0.124142,0.65908 0.366051,0.59229 0.508769,0.52559 0.508769,-0.23769 z m 3.621309,-3.62131 c 0,-0.36252 -0.172904,-0.55215 -0.384591,-0.42139 -0.2114,0.1309 -0.267538,0.42733 -0.124142,0.65905 0.366051,0.59229 0.508769,0.52559 0.508769,-0.23769 z m 3.621341,-3.62134 c 0,-0.36252 -0.172905,-0.55215 -0.384592,-0.42139 -0.211399,0.1309 -0.267537,0.42733 -0.124142,0.65909 0.366019,0.59224 0.508769,0.52555 0.508769,-0.2377 z m 3.62134,-3.62134 c 0,-0.36252 -0.173224,-0.55215 -0.384624,-0.42139 -0.211398,0.1309 -0.267536,0.42733 -0.124142,0.65909 0.36602,0.59224 0.508769,0.52558 0.508769,-0.2377 z m 3.621338,-3.62134 c 0,-0.3625 -0.17322,-0.55215 -0.38462,-0.4214 -0.2114,0.13091 -0.26754,0.42733 -0.12414,0.6591 0.36602,0.59224 0.50877,0.52558 0.50877,-0.2377 z m 3.62135,-3.62135 c 0,-0.36249 -0.17323,-0.5521 -0.38463,-0.42139 -0.2114,0.13091 -0.26753,0.42733 -0.12414,0.6591 0.36605,0.59227 0.5088,0.52558 0.5088,-0.23771 z m -10.91282,-4.11888 c 0.828531,-0.66378 0.814096,-0.6732 -0.2531,-0.16488 -1.385612,0.65989 -1.642435,0.86898 -1.067294,0.86898 0.242837,0 0.837,-0.31662 1.320266,-0.70396 z m 5.91382,-3.10882 c 0.70108,0.2284 0.73088,0.19152 0.17066,-0.21171 -0.56176,-0.4041 -0.56828,-0.48962 -0.0379,-0.49537 0.3527,-0.003 0.52291,-0.12537 0.37827,-0.2701 -0.14468,-0.14466 -0.7388,4.5e-4 -1.3203,0.32249 -0.581488,0.32204 -1.225181,0.53719 -1.430422,0.47814 -0.205304,-0.0591 -0.238024,0.1113 -0.07281,0.37848 0.212683,0.34415 0.469826,0.34514 0.88159,0.003 0.319824,-0.26529 0.963642,-0.35789 1.430872,-0.20563 z m 94.77796,112.81768 c -1.61829,-0.23416 -3.24788,-0.42552 -3.62134,-0.42527 -1.14519,9e-4 -12.88089,-2.31598 -13.21024,-2.60784 -0.17001,-0.15076 0.29096,-0.94232 1.02456,-1.7591 l 1.3338,-1.48509 4.63379,1.63586 c 2.54856,0.89971 7.38373,2.41983 10.74478,3.37803 4.99547,1.42416 5.73915,1.73734 4.07401,1.71566 -1.12036,-0.016 -3.36106,-0.21814 -4.97936,-0.45225 z m -4.19659,-1.09093 c -0.15044,-0.15045 -0.54085,-0.16648 -0.86763,-0.0356 -0.36111,0.14437 -0.25374,0.25181 0.27363,0.27363 0.47718,0.0193 0.74455,-0.0872 0.59414,-0.23769 z m -17.35683,-4.75728 c 0.0135,-2.17433 -0.93505,-3.11726 -3.13328,-3.11726 -1.40923,0 -2.92598,1.13309 -2.92598,2.18583 0,0.64696 0.016,0.64663 -1.74312,0.0334 -0.78408,-0.27332 -1.42555,-0.63832 -1.42555,-0.81108 0,-0.40346 3.78151,-4.12396 4.1916,-4.12396 0.17034,0 2.222,0.90559 4.55929,2.01247 2.33729,1.10683 4.7874,2.14741 5.44471,2.31239 0.65728,0.16488 1.19508,0.39428 1.19508,0.50954 0,0.65761 -1.47828,1.50292 -2.62823,1.50292 -0.73423,0 -1.58852,0.30539 -1.89847,0.67901 -1.01765,1.22621 -1.64746,0.7708 -1.63605,-1.1831 z m -150.410949,0.12028 c -0.524968,-0.73723 -0.95447,-1.54662 -0.95447,-1.79866 0,-0.25214 -0.152696,-0.52613 -0.33949,-0.60911 -1.004162,-0.44632 -8.382409,-15.44968 -8.443806,-17.1702 -0.02246,-0.67358 -0.168415,-1.14822 -0.320788,-1.05474 -0.152375,0.0933 -0.741406,-1.40335 -1.308911,-3.32636 -0.567505,-1.92295 -1.118747,-3.73037 -1.224992,-4.01644 -0.106174,-0.28615 1.733152,-2.43395 4.087476,-4.77304 l 4.280656,-4.2529 0.452407,4.05231 c 0.446536,3.9993 0.437587,4.06711 -0.682828,5.18756 -2.16057,2.16053 -3.055568,6.40366 -1.959051,9.28767 0.720329,1.89461 3.548521,4.34892 5.663154,4.9145 1.742615,0.46607 2.036008,0.73791 2.556358,2.36862 0.323322,1.01316 0.813262,2.2495 1.088785,2.74746 0.588582,1.0637 0.353477,7.60181 -0.259837,7.22283 -0.225514,-0.13958 -0.303466,0.0256 -0.173226,0.36438 0.13056,0.33984 -0.155261,0.97312 -0.635063,1.40724 -0.837352,0.75779 -0.910268,0.73578 -1.826629,-0.55112 z m 137.416769,-3.16406 c -0.95109,-0.42052 -1.56839,-0.9254 -1.37181,-1.12201 0.19664,-0.19666 0.0404,-0.23578 -0.34687,-0.0872 -0.67442,0.25887 -8.48666,-3.31162 -9.90576,-4.52722 -0.37346,-0.31982 -1.53201,-1.06087 -2.57458,-1.6466 -2.70116,-1.51758 -4.89076,-3.30481 -8.52047,-6.95483 -3.35618,-3.37494 -6.24709,-7.32244 -5.84226,-7.97748 0.13315,-0.21525 0.0462,-0.39165 -0.19311,-0.39165 -0.53892,0 -1.50988,-2.67158 -1.17052,-3.22067 0.13629,-0.22038 0.067,-0.40067 -0.15366,-0.40067 -0.4499,0 -1.46295,-4.98632 -1.46295,-7.20078 0,-3.87789 3.18417,-13.92149 4.58171,-14.45178 0.21878,-0.083 0.39762,-0.33535 0.39762,-0.56081 0,-0.46665 3.65223,-5.45265 5.35811,-7.31488 0.9406,-1.02678 1.25412,-1.14198 1.84816,-0.67903 0.61472,0.47911 0.63693,0.45688 0.15783,-0.15814 -0.45801,-0.58768 -0.37715,-0.90969 0.45266,-1.80193 0.55571,-0.59749 0.95944,-1.24308 0.89718,-1.43459 -0.10517,-0.32435 0.57457,-0.52554 1.35803,-0.40185 0.18669,0.0289 0.33949,-0.22936 0.33949,-0.57527 0,-0.34584 0.38991,-1.10974 0.86648,-1.69748 l 0.86644,-1.06868 1.85859,1.95241 c 1.02221,1.07385 1.7421,2.14095 1.5997,2.37134 -0.14242,0.23031 0.0193,0.31276 0.35605,0.18285 0.6057,-0.23258 4.0216,3.12755 3.67926,3.61902 -0.0953,0.13674 -0.0369,0.14631 0.12956,0.0224 0.16648,-0.12507 0.70541,0.12956 1.19752,0.56585 0.86658,0.76811 0.87852,0.76211 0.37911,-0.19024 -0.28357,-0.54085 -1.0193,-1.37955 -1.63486,-1.86374 -0.61553,-0.48417 -0.9733,-1.04189 -0.79501,-1.23933 0.17835,-0.19728 0.0927,-0.2268 -0.19023,-0.0651 -0.55467,0.31693 -1.65961,-0.71691 -1.29218,-1.20893 0.12222,-0.16392 0.10741,-0.21685 -0.0334,-0.11744 -0.41824,0.29481 -2.31095,-1.72539 -2.07736,-2.21735 0.11834,-0.24892 0.0482,-0.30154 -0.15557,-0.11714 -0.5755,0.52132 -1.56029,-0.53812 -1.28947,-1.38719 0.18733,-0.58768 0.14302,-0.62039 -0.19664,-0.14497 -0.25312,0.35442 -0.55192,0.43112 -0.70629,0.18125 -0.3817,-0.61761 2.40071,-4.25441 2.98069,-3.89596 0.2653,0.16393 0.35977,0.0998 0.21012,-0.14212 -0.14945,-0.24219 0.17676,-0.93561 0.72547,-1.54114 3.1183,-3.44163 10.50172,-13.82326 12.21177,-17.17058 1.97595,-3.86789 2.42268,-4.54084 2.7912,-4.20507 0.2159,0.19664 0.26914,0.14048 0.11834,-0.12477 -0.15077,-0.26529 0.31405,-2.20029 1.03258,-4.30032 4.52912,-13.23728 2.86159,-27.91185 -4.41381,-38.84294 -2.00986,-3.01971 -5.41845,-6.84705 -6.09795,-6.84705 -0.20144,0 0.15013,1.01849 0.7809,2.26335 0.6308,1.24481 1.03691,2.26332 0.90251,2.26332 -0.1345,0 0.0446,0.45833 0.39768,1.01849 2.29218,3.63606 3.07794,15.78984 1.47058,22.74654 -1.51826,6.57105 -4.42892,13.15821 -8.2635,18.70119 -2.99127,4.32396 -3.40614,4.7544 -3.9095,4.05602 -0.29031,-0.40278 -0.33486,-0.32769 -0.14781,0.24924 0.37204,1.14759 -2.46847,4.40355 -8.20473,9.4048 l -4.67625,4.07705 -12.68646,-12.71097 c -6.97754,-6.99101 -12.86881,-12.59825 -13.09169,-12.46051 -0.22295,0.13764 -0.32961,-0.14212 -0.23706,-0.62185 0.19311,-1.00194 -0.60036,-1.02516 -1.86715,-0.0549 -0.46081,0.35304 -0.23931,-0.0135 0.49199,-0.81232 0.73143,-0.79982 1.64808,-1.40313 2.03701,-1.3407 0.46578,0.0748 0.65822,-0.17258 0.56375,-0.72411 -0.0879,-0.51378 0.0475,-0.71954 0.35068,-0.53219 0.27172,0.16809 0.46502,0.13763 0.42934,-0.0678 -0.16328,-0.94039 0.10458,-1.11429 0.83457,-0.54171 0.70564,0.55339 0.72908,0.54049 0.21492,-0.11803 -0.48195,-0.61708 -0.44452,-0.79771 0.22616,-1.09258 0.44205,-0.1944 1.00744,-0.37545 1.25639,-0.40253 0.24895,-0.0256 0.38812,-0.4216 0.30925,-0.87668 -0.088,-0.50632 0.0485,-0.7089 0.35072,-0.52204 0.2717,0.16809 0.46497,0.13763 0.42933,-0.0676 -0.16263,-0.93661 0.10398,-1.11657 0.83457,-0.56359 0.66034,0.49968 0.70284,0.49867 0.25535,-0.006 -0.41646,-0.46973 -0.39653,-0.74564 0.0889,-1.2311 0.34412,-0.34407 0.89123,-0.57105 1.21576,-0.50437 0.35249,0.0726 0.53231,-0.21588 0.44663,-0.71634 -0.088,-0.51379 0.0474,-0.71954 0.35072,-0.53219 0.27171,0.16808 0.46499,0.13764 0.42935,-0.0678 -0.16265,-0.9366 0.10398,-1.11653 0.83455,-0.56356 0.62502,0.47298 0.6821,0.47486 0.27043,0.009 -0.39883,-0.45136 -0.3485,-0.79268 0.21365,-1.44932 0.79667,-0.93048 1.69719,-1.18933 1.17001,-0.33636 -0.19568,0.31631 -0.12447,0.40003 0.17996,0.21172 0.27651,-0.17097 0.37525,-0.64321 0.21941,-1.04952 -0.19215,-0.50088 -0.10936,-0.63114 0.25728,-0.4045 0.29736,0.1838 0.51163,0.16616 0.47598,-0.0387 -0.16328,-0.94038 0.10457,-1.11428 0.83457,-0.54172 0.70564,0.55341 0.72908,0.54051 0.2146,-0.11803 -0.48192,-0.61706 -0.44452,-0.7977 0.22647,-1.09257 0.44206,-0.19439 1.00741,-0.37544 1.25637,-0.40252 0.24893,-0.0257 0.38812,-0.42162 0.30925,-0.87668 -0.088,-0.50634 0.0485,-0.70891 0.35071,-0.52205 0.2717,0.1681 0.46497,0.13764 0.42934,-0.0676 -0.16328,-0.94041 0.10457,-1.11428 0.83457,-0.54175 0.70562,0.5534 0.72908,0.54051 0.2146,-0.11804 -0.48192,-0.61707 -0.44451,-0.7977 0.22648,-1.09257 0.44203,-0.1944 1.0074,-0.37545 1.25636,-0.40253 0.24893,-0.0256 0.38812,-0.42161 0.30923,-0.87668 -0.088,-0.50632 0.0485,-0.7089 0.35072,-0.52205 0.27171,0.1681 0.46499,0.13764 0.42935,-0.0676 -0.16328,-0.94043 0.10457,-1.1143 0.83455,-0.54175 0.70564,0.55339 0.7291,0.5405 0.21461,-0.11803 -0.48192,-0.61708 -0.4445,-0.79771 0.22649,-1.09258 0.442,-0.1944 1.00739,-0.37542 1.25636,-0.40253 0.24893,-0.0256 0.38812,-0.4216 0.30923,-0.87668 -0.088,-0.50632 0.0485,-0.7089 0.35072,-0.52201 0.27171,0.16809 0.46499,0.13763 0.42935,-0.0676 -0.16328,-0.94043 0.10458,-1.11429 0.83453,-0.54175 0.70564,0.55338 0.72911,0.54049 0.21492,-0.11804 -0.48191,-0.61706 -0.44451,-0.79771 0.22615,-1.09256 0.44206,-0.19441 1.00744,-0.37542 1.25641,-0.40253 0.24893,-0.0257 0.38812,-0.42158 0.30924,-0.87668 -0.088,-0.50631 0.0485,-0.70892 0.35071,-0.52201 0.27172,0.16808 0.46499,0.13763 0.42935,-0.0676 -0.16329,-0.94041 0.10458,-1.11428 0.83453,-0.54174 0.70564,0.5534 0.72911,0.5405 0.21492,-0.11804 -0.48192,-0.61708 -0.44451,-0.79771 0.22616,-1.09258 0.44205,-0.19439 1.00743,-0.37542 1.25639,-0.40252 0.24894,-0.0257 0.38813,-0.42159 0.30925,-0.87669 -0.088,-0.50629 0.0485,-0.7089 0.35069,-0.52201 0.27169,0.16809 0.46501,0.13763 0.42933,-0.0676 -0.16328,-0.94043 0.10457,-1.1143 0.83457,-0.54175 0.70564,0.55339 0.72911,0.54049 0.21492,-0.11804 -0.48195,-0.61707 -0.44452,-0.7977 0.22616,-1.09258 0.44205,-0.19439 1.00743,-0.37541 1.25639,-0.40252 0.24894,-0.0257 0.38812,-0.42157 0.30925,-0.87668 -0.088,-0.5063 0.0485,-0.7089 0.35072,-0.52202 0.27169,0.1681 0.46501,0.13764 0.42933,-0.0676 -0.16328,-0.94038 0.10458,-1.11428 0.83457,-0.54175 0.70562,0.55339 0.72908,0.54049 0.21492,-0.11804 -0.48195,-0.61705 -0.44452,-0.7977 0.22616,-1.09256 0.44205,-0.19439 1.00744,-0.37541 1.25639,-0.40252 0.24893,-0.0257 0.38812,-0.42159 0.30925,-0.87669 -0.088,-0.5063 0.0485,-0.70891 0.35072,-0.52201 0.27169,0.16808 0.46497,0.13764 0.42933,-0.0678 -0.16328,-0.94039 0.10458,-1.11429 0.83457,-0.54175 0.70563,0.55343 0.72908,0.54054 0.21461,-0.11804 -0.48192,-0.6171 -0.44449,-0.79773 0.22647,-1.09257 0.44204,-0.1944 1.00744,-0.37545 1.25639,-0.40253 0.24893,-0.0257 0.38812,-0.42162 0.30925,-0.87671 -0.088,-0.50631 0.0485,-0.70892 0.35072,-0.52202 0.2717,0.1681 0.46497,0.13764 0.42933,-0.0678 -0.16263,-0.93657 0.10368,-1.11653 0.83457,-0.56356 0.60214,0.45565 0.6685,0.45932 0.27683,0.016 -0.39883,-0.452 -0.14273,-0.93064 1.13168,-2.11608 0.9059,-0.84262 1.37021,-1.5375 1.03181,-1.54425 -0.33836,-0.006 -8.03798,7.42872 -17.11023,16.5232 -9.63329,9.6569 -16.7032,16.40673 -16.99554,16.22606 -0.27523,-0.17002 -0.38067,-0.11549 -0.23416,0.12163 0.14661,0.23707 0.0917,0.7138 -0.12193,1.05935 -0.32995,0.53391 -0.51245,0.53065 -1.21494,-0.0224 -0.74118,-0.58268 -0.76793,-0.5746 -0.25856,0.0782 0.4688,0.60083 0.40486,0.93577 -0.36554,1.91517 -0.51352,0.65283 -1.17658,1.13995 -1.47347,1.08249 -0.29706,-0.0574 -0.48055,0.17516 -0.40814,0.51688 0.0853,0.40295 -0.12193,0.52411 -0.58935,0.34469 -0.42417,-0.16263 -0.60516,-0.0892 -0.43961,0.17869 0.38764,0.6272 -5.12333,5.98095 -5.75483,5.59065 -0.31502,-0.19472 -0.37635,-0.10488 -0.16361,0.23963 0.19119,0.30956 -0.006,0.93298 -0.44756,1.42205 -0.77053,0.8514 -0.83241,0.82808 -2.76034,-1.04035 -1.08472,-1.05122 -1.97218,-2.12133 -1.97218,-2.3781 0,-0.63833 4.9717,-2.99972 5.55573,-2.63876 0.2608,0.16103 0.33394,0.0715 0.16488,-0.20209 -0.1806,-0.29224 0.80906,-1.0852 2.43981,-1.95437 1.50912,-0.80435 3.6242,-2.23737 4.70018,-3.1845 1.07599,-0.94712 2.08545,-1.62687 2.24328,-1.51056 0.15783,0.1161 0.19568,0.086 0.0838,-0.067 -0.11161,-0.15302 0.39756,-1.40405 1.13168,-2.77973 2.35413,-4.41156 1.51905,-9.51318 -2.26214,-13.81973 -0.84268,-0.95975 -1.3135,-1.87952 -1.12127,-2.19049 0.21845,-0.35355 0.13629,-0.41568 -0.24092,-0.18253 -0.35521,0.21942 -0.93952,-0.0555 -1.54109,-0.72578 -0.74459,-0.82936 -4.14686,-3.53646 -6.59431,-5.24687 -0.10617,-0.0743 0.19921,-0.44978 0.67901,-0.83437 0.83341,-0.66814 0.82667,-0.67719 -0.15109,-0.20306 -0.86272,0.41828 -1.33948,0.27844 -3.03872,-0.89057 -1.10852,-0.76267 -2.22053,-1.73854 -2.47116,-2.16862 -0.25054,-0.43008 -0.46187,-0.60763 -0.46944,-0.39451 -0.006,0.21301 -1.64253,-1.08086 -3.633245,-2.87544 -1.990681,-1.79458 -3.486963,-3.47724 -3.325029,-3.73923 0.161998,-0.26209 0.08534,-0.34718 -0.170018,-0.18926 -0.405989,0.25086 -4.733896,-4.238984 -4.69152,-4.867054 0.0096,-0.131502 -0.488497,-0.743489 -1.105243,-1.360234 -0.616809,-0.616809 -1.121408,-1.411299 -1.121408,-1.765578 0,-0.354278 -0.321461,-0.910941 -0.71433,-1.236989 -0.392868,-0.326048 -1.21925,-1.589279 -1.836413,-2.807179 -0.946901,-1.86865 -1.029728,-2.332454 -0.530519,-2.970787 0.520639,-0.665665 0.502996,-0.687223 -0.146926,-0.179645 -0.642796,0.502013 -0.834722,0.33664 -1.479442,-1.274675 -0.407465,-1.018313 -0.623226,-2.041757 -0.479481,-2.274317 0.14371,-0.232576 0.06255,-0.422843 -0.180283,-0.422843 -0.922585,0 -2.327763,-7.88682 -2.327763,-13.064781 0,-4.334416 0.186055,-5.611605 1.343459,-9.223641 0.794591,-2.479784 2.163584,-5.440876 3.350916,-7.248099 1.104087,-1.680507 1.918663,-3.055507 1.810141,-3.055507 -0.752054,0 -4.797028,2.539327 -6.351405,3.987259 -1.709157,1.592136 -5.492913,6.876765 -4.923707,6.876765 0.130246,0 -0.07634,0.781699 -0.458469,1.737103 -1.886586,4.715025 -1.543407,13.834063 0.794174,21.102463 0.804247,2.500744 1.441139,4.799223 1.415347,5.107752 -0.02566,0.308589 0.11901,0.458343 0.322038,0.332945 0.20306,-0.125369 0.494336,0.166809 0.647543,0.649627 0.153337,0.482759 0.772841,1.606049 1.376949,2.496241 0.604107,0.890222 1.012406,1.618571 0.907317,1.618571 -0.105217,0 0.308276,0.53898 0.91896,1.197749 0.610523,0.658798 1.110054,1.399894 1.110054,1.646891 0,0.247012 0.827536,1.388539 1.83898,2.536723 1.011443,1.1482 1.979036,2.29458 2.150176,2.54751 0.430016,0.63547 4.171267,5.00487 6.365519,7.43425 0.998228,1.10519 1.693408,2.2061 1.544882,2.44642 -0.148528,0.24028 -0.04523,0.29801 0.229684,0.12836 0.520126,-0.32145 2.669051,2.23666 2.469263,2.93951 -0.06224,0.21911 0.03947,0.37401 0.226477,0.34454 0.81695,-0.12896 1.596852,0.0788 1.323152,0.35251 -0.16424,0.16423 0.12094,0.59291 0.63397,0.95229 0.51307,0.35937 0.82465,0.93537 0.69239,1.28 -0.13216,0.34466 -0.0949,0.57812 0.0828,0.51888 0.17772,-0.0594 0.37937,0.0401 0.44801,0.22102 0.0686,0.18092 0.63616,0.8805 1.26115,1.55486 0.62499,0.67438 1.0295,1.50461 0.89891,1.84495 -0.13056,0.34035 -0.0664,0.51316 0.14244,0.38397 0.29352,-0.18124 1.42802,2.38449 1.68417,3.80917 0.0225,0.12447 0.2268,0.63374 0.45427,1.13167 1.14867,2.51452 0.0494,12.07071 -1.29326,11.24098 -0.27524,-0.17002 -0.33398,-0.0703 -0.14211,0.24027 0.35672,0.5772 -1.09466,3.20617 -2.31756,4.19796 -0.41825,0.3392 -0.62067,0.38347 -0.44981,0.0981 0.17098,-0.28517 0.001,-0.63698 -0.37626,-0.78195 -0.56894,-0.21845 -0.60016,-0.10173 -0.18188,0.68018 0.37057,0.69241 0.37105,1.07775 0.002,1.447 -0.36923,0.36923 -0.79517,0.18831 -1.59945,-0.67895 -0.60292,-0.65024 -1.006438,-1.30596 -0.896697,-1.45721 0.109705,-0.15108 0.06544,-0.17482 -0.09816,-0.0527 -0.477396,0.35647 -1.531889,-0.73062 -1.211551,-1.24899 0.160074,-0.25919 0.107146,-0.37576 -0.118053,-0.25887 -0.456801,0.23675 -2.457844,-1.67752 -2.174107,-2.07998 0.09913,-0.14048 0.0462,-0.15559 -0.117409,-0.0334 -0.543319,0.40569 -1.463113,-0.72838 -1.216877,-1.50033 0.19119,-0.59888 0.148198,-0.62708 -0.2037,-0.13345 -0.357646,0.50184 -0.601669,0.38767 -1.234038,-0.57741 -0.753658,-1.15029 -0.7509,-1.24421 0.06352,-2.14425 1.522875,-1.68275 0.640774,-7.11767 -1.520823,-9.37021 -0.3179,-0.33127 -0.441628,-0.84052 -0.274915,-1.13167 0.166809,-0.29128 0.132804,-0.37491 -0.07507,-0.18606 -0.20787,0.18862 -0.698867,-0.12836 -1.091063,-0.70474 -0.392195,-0.57635 -1.894925,-2.51551 -3.339368,-4.30924 -1.577891,-1.95943 -2.497622,-3.48513 -2.30393,-3.82193 0.177396,-0.30828 0.153337,-0.40736 -0.05293,-0.22005 -0.45151,0.40954 -2.033154,-0.92866 -2.033154,-1.72023 0,-0.30828 -0.275236,-0.66606 -0.611742,-0.79516 -0.672563,-0.25824 -3.885701,-4.82901 -7.362304,-10.47333 -3.356145,-5.448749 -7.47214,-16.834953 -6.758227,-18.69539 0.144353,-0.376285 0.04362,-0.947774 -0.223589,-1.269933 -0.312127,-0.376195 -0.422863,-2.663409 -0.30924,-6.393109 0.204342,-6.712574 0.396943,-8.238211 1.456889,-11.542645 0.87758,-2.735878 4.257976,-8.97645 4.862373,-8.97645 0.219418,0 0.27267,-0.203701 0.11901,-0.452658 -0.153979,-0.248927 -0.06255,-0.452673 0.202738,-0.452673 0.265291,0 0.939362,-0.526144 1.497885,-1.169234 1.491021,-1.716787 7.454562,-5.312755 8.283254,-4.994756 0.385522,0.147959 0.592622,0.09365 0.460233,-0.120581 -0.329962,-0.533909 3.662948,-2.010909 4.326914,-1.600529 0.315013,0.19471 0.41327,0.135392 0.24027,-0.144668 -0.352097,-0.569708 1.772673,-1.184927 2.550584,-0.738507 0.299616,0.17194 0.393124,0.145266 0.207549,-0.05969 -0.372081,-0.41047 8.351388,-3.951429 9.919018,-4.026232 0.53943,-0.02573 0.89345,-0.134045 0.78673,-0.240908 -0.3639,-0.363913 4.03192,-2.338318 4.66506,-2.09539 0.34696,0.133148 0.51955,0.06194 0.38356,-0.158147 -0.31822,-0.51458 1.03583,-1.044105 1.66903,-0.652769 0.27524,0.17001 0.34995,0.08438 0.17451,-0.199543 -0.179,-0.289664 0.50527,-0.973237 1.6416,-1.639157 1.07185,-0.628129 2.5536,-1.773336 3.29279,-2.544907 1.23497,-1.289052 1.33878,-1.648207 1.27975,-4.428592 -0.0353,-1.664186 -0.14212,-3.334789 -0.23738,-3.712481 -0.2547,-1.010234 -2.14735,-4.026979 -3.85514,-6.145049 -0.82147,-1.018822 -1.34262,-2.019033 -1.1581,-2.222733 0.18445,-0.2037 0.11035,-0.242195 -0.16457,-0.08533 -0.55214,0.314693 -2.58818,-1.608654 -2.2201,-2.097214 0.12671,-0.168413 0.10265,-0.21204 -0.0536,-0.0972 -0.30186,0.221665 -7.971387,-6.4071579 -8.261604,-7.1407989 -0.10393,-0.262725 0.519708,-0.308278 1.584344,-0.1164522 2.66638,0.480989 5.1411,1.2657319 4.95293,1.5706079 -0.0924,0.149808 0.27075,0.3002582 0.80697,0.3347432 1.54116,0.0988 6.15608,2.357596 9.12308,4.465461 12.49909,8.879909 14.63957,21.695733 5.33156,31.921739 -0.9406,1.033394 -3.55767,3.371188 -5.81565,5.195091 -5.08546,4.107886 -6.80331,6.041015 -8.22517,9.256016 -2.33547,5.280814 -1.55069,10.792873 2.34727,16.486401 1.09822,1.604104 1.85858,3.070423 1.68972,3.258476 -0.16874,0.187978 -0.0821,0.213635 0.19311,0.0567 0.62499,-0.356179 2.57606,1.653115 2.10694,2.169804 -0.18895,0.208189 -0.11295,0.246682 0.16906,0.08572 0.28197,-0.161034 1.0441,0.125369 1.69366,0.636283 3.46297,2.723969 12.83398,6.338772 29.93306,11.546475 15.08969,4.595731 21.6973,8.668799 28.73605,17.713509 1.50764,1.93729 2.91354,3.7389 3.1242,4.00356 0.47976,0.60275 1.5987,2.6107 1.62373,2.91381 0.009,0.12447 0.49565,0.99537 1.07854,1.93535 0.58295,0.93993 0.94056,2.01993 0.79473,2.4 -0.14601,0.38007 -0.0821,0.57783 0.14183,0.4395 0.48163,-0.29768 1.98641,3.87873 3.33565,9.25784 0.81394,3.24503 0.96643,5.19475 0.97375,12.44834 0.009,9.20217 -0.52426,12.56747 -3.12017,19.67993 -1.92194,5.26577 -6.15548,12.93889 -6.811,12.34466 -0.20499,-0.18573 -0.22615,-0.0833 -0.0471,0.22808 0.48663,0.84559 -0.18478,1.72 -0.73244,0.95367 -0.32726,-0.45808 -0.36956,-0.40127 -0.16648,0.22359 0.18509,0.56985 -0.4732,1.8723 -2.05959,4.074 -3.80682,5.28338 -7.24986,9.35799 -7.6819,9.09101 -0.2223,-0.13734 -0.40407,0.0362 -0.40407,0.38583 0,0.84872 -1.55903,2.22544 -2.03311,1.79535 -0.20659,-0.18733 -0.23162,-0.0901 -0.0555,0.2159 0.20274,0.35257 -2.60399,3.50371 -7.66041,8.60067 -10.59716,10.6822 -12.38641,13.39484 -12.78086,19.37687 -0.17867,2.70796 -0.0256,3.65642 1.02695,6.33732 0.68029,1.734 1.53949,3.39381 1.90926,3.68844 0.37731,0.30058 0.52244,0.7783 0.33076,1.08847 -0.2053,0.33214 -0.15301,0.43624 0.13061,0.26079 0.49658,-0.30698 3.1484,2.82422 2.93672,3.46746 -0.0676,0.20531 0.0696,0.25408 0.30475,0.10877 0.23513,-0.14527 0.82975,0.24701 1.32118,0.87168 0.49145,0.62479 1.02596,1.13601 1.18776,1.13601 0.16167,0 1.51296,1.01426 3.00257,2.25394 1.48961,1.23965 3.11601,2.47209 3.61419,2.73869 0.49818,0.26658 0.79491,0.6642 0.65941,0.88346 -0.13539,0.21941 -0.006,0.54607 0.28358,0.72622 0.3501,0.21654 0.40803,0.13031 0.17065,-0.25374 -0.24091,-0.38991 -0.15237,-0.5061 0.26947,-0.35286 0.34584,0.12567 0.57285,0.47277 0.50443,0.77136 -0.0684,0.29866 0.069,0.42353 0.30506,0.27749 0.23611,-0.14601 2.38079,0.87722 4.76598,2.27364 l 4.33671,2.53897 -2.12699,2.21937 c -1.16982,1.22064 -2.34188,2.20426 -2.60457,2.18578 -0.26273,-0.0193 -1.25579,-0.37763 -2.20686,-0.79815 z m -22.63933,-15.67071 c 0,-0.36249 -0.17322,-0.55213 -0.38462,-0.42139 -0.2114,0.1309 -0.26753,0.42733 -0.12417,0.6591 0.36606,0.59224 0.50881,0.52557 0.50881,-0.23771 z m -5.22495,-7.60963 c -0.44706,-0.44374 -0.49905,-0.39174 -0.25343,0.25343 0.17003,0.44643 0.42308,0.69768 0.56247,0.55829 0.13928,-0.13958 2.8e-4,-0.50463 -0.30923,-0.81169 z m 1.61105,-22.14485 c -0.14467,-0.3611 -0.25182,-0.25373 -0.27363,0.27364 -0.0193,0.47717 0.0872,0.74456 0.23771,0.59413 0.15044,-0.15044 0.16649,-0.54085 0.0356,-0.8676 z m 14.81632,-18.46803 c -0.2932,-0.2932 -0.44621,-0.14018 -0.44621,0.44621 0,0.58632 0.15301,0.73936 0.44621,0.4462 0.29321,-0.29321 0.29321,-0.59925 0,-0.89241 z m 23.72332,-13.26313 c 0.36367,-0.43819 0.27811,-0.582 -0.34581,-0.582 -0.48938,0 -0.73738,0.23835 -0.6055,0.582 0.12283,0.32014 0.27844,0.58201 0.34581,0.58201 0.0673,0 0.33984,-0.26176 0.6055,-0.58201 z m -28.69377,-7.51762 c 0.11774,-0.19055 -0.17963,-0.31758 -0.66085,-0.28231 -1.20337,0.0886 -1.5041,0.48192 -0.43039,0.56283 0.48237,0.0362 0.97343,-0.0898 1.09124,-0.28069 z m -31.58136,-19.26683 c 0,-0.3625 -0.17322,-0.55212 -0.38459,-0.42139 -0.2114,0.1309 -0.26753,0.42731 -0.12417,0.65908 0.36605,0.59227 0.50876,0.52559 0.50876,-0.23769 z m 3.62134,-3.62135 c 0,-0.36249 -0.17322,-0.55211 -0.38458,-0.42139 -0.21141,0.13091 -0.26754,0.42732 -0.12418,0.65909 0.36606,0.59227 0.50876,0.52559 0.50876,-0.2377 z m 3.62135,-3.62134 c 0,-0.36249 -0.1729,-0.55211 -0.38459,-0.42139 -0.21141,0.13091 -0.26754,0.42732 -0.12417,0.65908 0.366,0.59229 0.50876,0.5256 0.50876,-0.23769 z m 3.97466,-3.90623 c -0.14572,-0.23578 -0.45793,-0.30956 -0.69378,-0.16392 -0.23577,0.14556 -0.30956,0.45792 -0.16392,0.69376 0.14572,0.23578 0.45795,0.30956 0.69378,0.16392 0.23577,-0.14571 0.30956,-0.45792 0.16392,-0.69376 z m -20.7159,-1.40422 c -0.14436,-0.36111 -0.25182,-0.25374 -0.27331,0.27363 -0.0192,0.47718 0.0872,0.74452 0.2377,0.59409 0.15045,-0.15044 0.16649,-0.5408 0.0356,-0.8676 z m 23.98392,-1.9322 c 0,-0.36252 -0.17323,-0.55215 -0.38459,-0.42139 -0.21172,0.1309 -0.26754,0.42733 -0.12417,0.6591 0.36601,0.59224 0.50876,0.52554 0.50876,-0.23771 z m 3.62134,-3.62134 c 0,-0.36249 -0.17323,-0.55215 -0.38462,-0.42139 -0.2114,0.1309 -0.26754,0.42733 -0.12417,0.6591 0.36602,0.59223 0.50878,0.52557 0.50878,-0.23771 z m 3.62134,-3.62134 c 0,-0.36249 -0.17323,-0.55215 -0.38462,-0.42139 -0.2114,0.1309 -0.26753,0.42733 -0.12417,0.65909 0.36605,0.59227 0.50881,0.52558 0.50881,-0.2377 z m 3.62134,-3.62134 c 0,-0.3625 -0.17322,-0.5521 -0.38462,-0.4214 -0.2114,0.13091 -0.26753,0.42733 -0.12417,0.6591 0.36606,0.59227 0.50881,0.52558 0.50881,-0.2377 z m -34.64832,-1.72497 c -0.44708,-0.44372 -0.49905,-0.39171 -0.25342,0.25341 0.17002,0.44642 0.42312,0.69765 0.5625,0.55828 0.13923,-0.13928 2.9e-4,-0.5046 -0.30924,-0.81169 z m 38.26966,-1.89638 c 0,-0.36249 -0.17322,-0.5521 -0.38463,-0.42139 -0.21139,0.13091 -0.26752,0.42733 -0.12417,0.6591 0.36605,0.59227 0.5088,0.52558 0.5088,-0.23771 z m 3.62132,-3.62134 c 0,-0.36249 -0.17323,-0.5521 -0.38461,-0.42139 -0.21139,0.13091 -0.26753,0.42733 -0.12417,0.6591 0.36605,0.59227 0.50878,0.52557 0.50878,-0.23771 z m 3.62134,-3.62134 c 0,-0.36249 -0.17323,-0.5521 -0.38461,-0.42139 -0.21139,0.1309 -0.26753,0.42733 -0.12417,0.6591 0.36605,0.59227 0.50878,0.52557 0.50878,-0.23771 z m 3.62133,-3.62131 c 0,-0.36252 -0.17322,-0.55213 -0.3846,-0.42141 -0.21139,0.13091 -0.26754,0.42735 -0.12417,0.65909 0.36602,0.59227 0.50877,0.52557 0.50877,-0.23771 z m -46.71949,-1.57296 c 0.14339,-0.23161 0.0872,-0.52837 -0.12414,-0.65909 -0.2114,-0.13091 -0.3846,0.0591 -0.3846,0.42139 0,0.76328 0.14276,0.82997 0.50877,0.2377 z m -25.709217,-2.86047 c -0.125743,-0.31116 -0.228401,-0.0564 -0.228401,0.56584 0,0.62243 0.102658,0.87707 0.228401,0.56583 0.125742,-0.31116 0.125742,-0.82044 0,-1.13167 z M 69.423648,85.382541 c -0.144683,-0.361115 -0.251819,-0.253744 -0.273633,0.273641 -0.01925,0.477194 0.08725,0.744537 0.237704,0.594125 0.15045,-0.150457 0.166489,-0.54085 0.03561,-0.867602 z m 39.245532,-6.502305 c 0.15462,-0.40284 0.0786,-0.584535 -0.17804,-0.425969 -0.24605,0.152058 -0.44747,0.468247 -0.44747,0.702527 0,0.651139 0.32445,0.507638 0.62538,-0.276528 z m -0.90533,-0.905317 c 0.15462,-0.402855 0.0786,-0.58455 -0.17804,-0.425984 -0.24604,0.152058 -0.44746,0.468262 -0.44746,0.702528 0,0.651138 0.32444,0.507653 0.62537,-0.276514 z M 73.497652,59.127864 c -0.144682,-0.361116 -0.251818,-0.253744 -0.273311,0.273626 -0.01925,0.477179 0.08725,0.744552 0.237704,0.59414 0.15045,-0.150458 0.166489,-0.540851 0.03561,-0.867602 z m -0.174509,-1.574902 c -0.127358,-0.331987 -0.289992,-0.603564 -0.361078,-0.603564 -0.07121,0 -0.233854,0.271697 -0.361079,0.603564 -0.127359,0.331943 0.03496,0.60352 0.361079,0.60352 0.325984,0 0.488463,-0.271697 0.361078,-0.60352 z m 15.029612,-3.319589 c -0.153979,-0.248927 -0.522371,-0.449547 -0.818906,-0.445732 -0.323931,0.003 -0.26818,0.182219 0.139865,0.445732 0.869655,0.562034 1.02636,0.562034 0.679011,0 z M 77.320159,52.988559 c 0.563046,-0.717952 0.54704,-0.73399 -0.17098,-0.170983 -0.435694,0.341711 -0.792185,0.698174 -0.792185,0.792156 0,0.372575 0.371728,0.132848 0.963068,-0.621233 z M 110.08077,15.304024 c -0.15398,-0.248932 -0.52237,-0.449553 -0.81887,-0.445735 -0.32397,0.0031 -0.26818,0.182208 0.13986,0.445735 0.86962,0.561987 1.02633,0.561987 0.67901,0 z M 10.531734,227.20841 c -0.485158,-0.79889 -1.1834822,-12.43357 -0.9374381,-15.61919 0.5583001,-7.22923 3.6098581,-20.19768 4.7526001,-20.19768 0.230325,0 0.320466,-0.25696 0.20017,-0.57068 -0.512489,-1.33558 7.275723,-14.73805 10.725731,-18.45752 0.585597,-0.63131 1.744604,-2.00727 2.575605,-3.05766 0.831,-1.05039 1.68205,-1.80405 1.891236,-1.67476 0.209153,0.12926 0.515441,-0.19055 0.680583,-0.71097 0.165206,-0.52032 0.374905,-0.87135 0.466137,-0.78013 0.09111,0.0911 1.651319,-1.22986 3.466849,-2.93574 3.105225,-2.91773 12.72026,-9.78348 14.022563,-10.013 0.327299,-0.0577 1.308012,-0.5501 2.179399,-1.09421 0.871388,-0.54413 1.722246,-0.99008 1.890787,-0.99101 0.168415,-9.4e-4 1.798145,-0.67959 3.621342,-1.50816 5.11217,-2.32317 6.158611,-2.6819 6.752517,-2.31486 0.330475,0.20434 0.432968,0.15044 0.256952,-0.13435 -0.347671,-0.56254 1.77912,-1.19118 2.50734,-0.74112 0.326465,0.20177 0.372339,0.10068 0.131203,-0.28935 -0.265934,-0.43046 -0.166489,-0.52118 0.353508,-0.32171 0.398193,0.15268 0.788079,0.11609 0.866415,-0.0818 0.139536,-0.35214 8.53504,-3.28875 9.874745,-3.45399 0.373461,-0.0462 0.984562,-0.19182 1.358023,-0.32376 0.373429,-0.1318 2.614131,-0.89709 4.979332,-1.70015 2.365167,-0.80306 5.199232,-1.97355 6.297864,-2.60111 1.893707,-1.08169 2.028245,-1.09898 2.588341,-0.33301 0.324926,0.44436 0.484902,0.9793 0.355464,1.18874 -0.129273,0.20948 0.03978,0.27525 0.375708,0.14632 0.818842,-0.31405 2.800028,1.82578 2.355768,2.5446 -0.198888,0.32198 -0.156223,0.44029 0.101372,0.28102 0.655883,-0.40535 3.866904,2.3952 3.585895,3.12748 -0.13056,0.34004 0.0096,0.56976 0.312446,0.51048 0.302183,-0.0594 0.498633,0.14692 0.436367,0.45812 -0.06223,0.31116 0.03945,0.54171 0.226476,0.51223 1.197056,-0.18895 0.876426,0.25952 -1.284305,1.79654 -3.79463,2.6993 -7.363008,4.18884 -20.556881,8.58106 -18.835758,6.27042 -23.825354,8.55464 -32.413131,14.83869 -1.146431,0.83889 -2.248529,1.37686 -2.449086,1.19545 -0.200492,-0.18125 -0.237063,-0.10592 -0.08116,0.16776 0.155903,0.27364 -0.218777,0.9344 -0.832764,1.46819 -0.613923,0.53379 -1.116213,0.90206 -1.116213,0.81834 0,-0.22489 -7.392361,7.23472 -7.921693,7.99377 -0.248931,0.35703 -1.288541,1.84648 -2.310185,3.30994 -5.94208,8.51166 -9.551359,17.99052 -10.657499,27.98912 l -0.453017,4.09508 -4.501645,4.58284 c -2.475937,2.52059 -4.578893,4.45574 -4.673236,4.30036 z m 11.417863,-46.91922 c -0.139536,-0.13958 -0.392485,0.11191 -0.56247,0.55831 -0.245724,0.64513 -0.193756,0.69713 0.253423,0.25342 0.309238,-0.30699 0.448429,-0.67231 0.309238,-0.8117 z m 21.585902,-9.26252 c 0.15847,-0.25663 -0.02246,-0.33245 -0.425942,-0.17803 -0.78423,0.3009 -0.927717,0.62541 -0.276519,0.62541 0.234176,0 0.550409,-0.20146 0.702494,-0.4475 z m -13.865761,-1.06138 c 0.374327,-0.45103 0.350205,-0.60357 -0.0956,-0.60357 -0.328007,0 -0.596378,0.27171 -0.596378,0.60357 0,0.33195 0.04298,0.60356 0.0956,0.60356 0.0526,0 0.320884,-0.27171 0.596376,-0.60356 z"
             id="path1563" />
          <rect
             style="fill:#0f74bc;fill-opacity:1;stroke-width:0.455544"
             id="rect2257"
             width="7.0876269"
             height="126.32202"
             x="183.23242"
             y="-25.095453"
             transform="rotate(46.238549)" />
        </g>
        <ellipse
           style="fill:#0f74bc;fill-opacity:1;stroke-width:0.455544"
           id="path2844"
           cx="148.28989"
           cy="109.34437"
           rx="9.0449572"
           ry="9.9150267" />
        <rect
           style="fill:#0f74bc;fill-opacity:1;stroke-width:0.455544"
           id="rect2850"
           width="10.113472"
           height="38.749916"
           x="-56.137676"
           y="178.41675"
           transform="rotate(-50.964704)" />
      </g>
      <ellipse
         style="fill:#0f74bc;fill-opacity:1;stroke-width:0.455544"
         id="path2859"
         cx="96.731262"
         cy="141.01306"
         rx="6.2247152"
         ry="6.2614107" />
      <ellipse
         style="fill:#0f74bc;fill-opacity:1;stroke-width:0.455544"
         id="path2859-5"
         cx="152.46593"
         cy="195.58217"
         rx="6.2247152"
         ry="6.2614107" />
    </g>
    <path
       style="fill:#a2792a;fill-opacity:1;stroke-width:0.996035"
       d="m 92.494632,283.29674 c 0,-0.27908 0.455906,-5.88949 1.013146,-12.46752 2.694396,-31.80721 3.55148,-49.37089 2.705898,-55.45041 -1.324325,-9.52148 -6.336459,-15.96639 -17.787668,-22.8725 -7.623787,-4.59783 -10.496257,-6.99985 -12.190918,-10.1943 -1.052091,-1.98324 -1.138511,-2.4811 -0.553121,-3.18646 1.310657,-1.57927 3.18202,-0.82173 10.768913,4.35928 5.141586,3.51111 7.121282,4.14497 5.947207,1.90416 -0.374553,-0.71485 -3.431647,-4.2172 -6.79354,-7.78301 -9.302901,-9.86716 -11.971481,-14.24183 -10.436814,-17.10938 1.22957,-2.29746 2.72747,-1.40944 9.795462,5.8071 3.723501,3.80176 7.775323,7.93572 9.004074,9.1866 1.228737,1.25088 2.484847,2.27433 2.791342,2.27433 0.936872,0 0.243418,-1.69792 -6.324659,-15.48598 -4.896458,-10.27892 -5.381818,-11.63471 -4.608424,-12.87312 1.026062,-1.64297 3.190339,-1.31854 5.007026,0.75057 0.863719,0.98373 2.914089,4.58618 4.556351,8.00546 2.763378,5.75343 6.168246,11.0564 8.127415,12.65815 0.448594,0.36674 1.495863,1.03826 2.327242,1.49226 1.419869,0.77531 1.577585,0.75943 2.598556,-0.26154 1.051667,-1.05165 1.065063,-1.26192 0.412733,-6.47926 -1.821426,-14.56779 -1.864798,-18.4744 -0.223356,-20.11583 1.071004,-1.07101 2.530503,-0.17401 3.815633,2.34505 0.5675,1.1124 2.23859,6.83201 3.71355,12.71027 2.52588,10.06659 4.22542,14.7317 6.14235,16.86025 1.17778,1.3078 5.01193,1.19386 7.97936,-0.23715 3.0381,-1.46508 7.44241,-5.90807 9.53866,-9.62239 0.89091,-1.57863 2.28343,-3.34274 3.09443,-3.92024 1.75981,-1.25308 4.33261,-1.36756 5.27287,-0.23461 1.32304,1.59416 0.72913,3.61086 -2.47156,8.39245 -9.60803,14.35372 -15.13674,28.90032 -16.9508,44.59934 -0.79281,6.86106 -0.66769,23.85996 0.24894,33.82256 0.94323,10.25152 3.65957,28.83611 4.7816,32.71464 0.24891,0.86045 -0.73458,0.91865 -15.51807,0.91865 -9.809378,0 -15.783828,-0.19206 -15.783828,-0.50742 z"
       id="path1064-5"
       clip-path="url(#clipath_lpe_path-effect1319)"
       inkscape:path-effect="#path-effect1319;#path-effect1333"
       inkscape:original-d="m 92.494632,283.29674 c 0,-0.27908 0.455906,-5.88949 1.013146,-12.46752 2.694396,-31.80721 3.55148,-49.37089 2.705898,-55.45041 -1.324325,-9.52148 -6.336459,-15.96639 -17.787668,-22.8725 -7.623787,-4.59783 -10.496257,-6.99985 -12.190918,-10.1943 -1.052091,-1.98324 -1.138511,-2.4811 -0.553121,-3.18646 1.310657,-1.57927 3.18202,-0.82173 10.768913,4.35928 5.141586,3.51111 7.121282,4.14497 5.947207,1.90416 -0.374553,-0.71485 -3.431647,-4.2172 -6.79354,-7.78301 -9.302901,-9.86716 -11.971481,-14.24183 -10.436814,-17.10938 1.22957,-2.29746 2.72747,-1.40944 9.795462,5.8071 3.723501,3.80176 7.775323,7.93572 9.004074,9.1866 1.228737,1.25088 2.484847,2.27433 2.791342,2.27433 0.936872,0 0.243418,-1.69792 -6.324659,-15.48598 -4.896458,-10.27892 -5.381818,-11.63471 -4.608424,-12.87312 1.026062,-1.64297 3.190339,-1.31854 5.007026,0.75057 0.863719,0.98373 2.914089,4.58618 4.556351,8.00546 2.763378,5.75343 6.168246,11.0564 8.127415,12.65815 0.448594,0.36674 1.495863,1.03826 2.327242,1.49226 1.419869,0.77531 1.577585,0.75943 2.598556,-0.26154 1.051667,-1.05165 1.065063,-1.26192 0.412733,-6.47926 -1.821426,-14.56779 -1.864798,-18.4744 -0.223356,-20.11583 1.071004,-1.07101 2.530503,-0.17401 3.815633,2.34505 0.5675,1.1124 2.23859,6.83201 3.71355,12.71027 2.52588,10.06659 4.22542,14.7317 6.14235,16.86025 1.17778,1.3078 5.01193,1.19386 7.97936,-0.23715 3.0381,-1.46508 7.44241,-5.90807 9.53866,-9.62239 0.89091,-1.57863 2.28343,-3.34274 3.09443,-3.92024 1.75981,-1.25308 4.33261,-1.36756 5.27287,-0.23461 1.32304,1.59416 0.72913,3.61086 -2.47156,8.39245 -9.60803,14.35372 -15.13674,28.90032 -16.9508,44.59934 -0.79281,6.86106 -0.66769,23.85996 0.24894,33.82256 0.94323,10.25152 3.65957,28.83611 4.7816,32.71464 0.24891,0.86045 -0.73458,0.91865 -15.51807,0.91865 -9.809378,0 -15.783828,-0.19206 -15.783828,-0.50742 z"
       transform="matrix(0.98926045,0,0,1.0189054,126.75856,-55.119196)" />
    <ellipse
       style="fill:#008005;fill-opacity:0.5;stroke:none;stroke-width:0.264583;stroke-opacity:1"
       id="path1171"
       cx="218.65669"
       cy="84.798065"
       rx="54.084393"
       ry="55.705128" />
    <ellipse
       style="fill:#008005;fill-opacity:0.5;stroke:none;stroke-width:0.264583;stroke-opacity:1"
       id="path1171-3"
       cx="257.70303"
       cy="106.48665"
       rx="33.489887"
       ry="34.493473" />
    <ellipse
       style="fill:#008005;fill-opacity:0.5;stroke:none;stroke-width:0.264583;stroke-opacity:1"
       id="path1171-3-6"
       cx="194.3511"
       cy="120.72455"
       rx="25.066254"
       ry="25.817408" />
    <g
       id="g2225"
       transform="matrix(2.0251681,0,0,2.0858559,-82.657805,-174.6572)"
       style="stroke-width:0.486549">
      <g
         style="clip-rule:evenodd;fill-rule:evenodd;stroke-width:1.07359;image-rendering:optimizeQuality;shape-rendering:geometricPrecision;text-rendering:geometricPrecision"
         id="g1525"
         transform="matrix(0.11990907,0,0,0.11990907,86.414757,137.2686)">
        <path
           fill-rule="nonzero"
           d="M 31.65,252.74 H 480.36 C 463.59,219.7 443.25,188.33 419.8,159.2 392.14,124.85 360.22,93.61 324.83,66.42 l -8.27,-6.33 C 285.64,36.26 270.15,24.33 257.62,24.3 244.97,24.27 229.17,36.1 197.63,59.75 l -8.54,6.39 c -36.87,27.6 -68.74,58.71 -95.69,91.84 -24.58,30.22 -45.14,62.2 -61.75,94.76 z m 149.25,208.3 v -64.05 c 0,-19.93 8.15,-38.07 21.27,-51.19 l 0.7,-0.65 c 13.06,-12.73 30.9,-20.62 50.49,-20.62 19.91,0 38.02,8.16 51.14,21.27 13.16,13.12 21.32,31.26 21.32,51.19 v 64.05 H 448.39 L 424.88,277.15 H 89.46 L 62.49,461.04 Z m 120.56,0 v -64.05 c 0,-13.21 -5.43,-25.25 -14.14,-33.96 -8.69,-8.72 -20.73,-14.14 -33.96,-14.14 -12.97,0 -24.79,5.21 -33.46,13.6 l -0.5,0.54 c -8.72,8.71 -14.14,20.75 -14.14,33.96 v 64.05 z m 147.89,-183.89 24.73,193.44 c 0.18,0.85 0.29,1.73 0.29,2.63 0,6.73 -5.46,12.19 -12.19,12.19 H 48.4 l -1.76,-0.15 c -6.65,-0.97 -11.25,-7.15 -10.28,-13.8 L 64.87,277.15 h -52.7 c -1.7,-0.03 -3.45,-0.38 -5.1,-1.15 -6.09,-2.81 -8.76,-10.06 -5.95,-16.16 18.7,-40.26 43.14,-79.98 73.41,-117.2 28.28,-34.76 61.58,-67.3 99.97,-95.99 l 8.54,-6.35 C 218.9,13.4 236.88,-0.06 257.62,0 c 20.87,0.04 38.52,13.65 73.81,40.84 l 8.22,6.33 c 37.05,28.5 70.36,61.07 99.11,96.77 28.58,35.52 52.77,74.22 71.74,115.14 0.96,1.74 1.5,3.74 1.5,5.87 0,6.73 -5.47,12.2 -12.2,12.2 z"
           id="path1514"
           style="fill:#a2792a;fill-opacity:1;stroke-width:2.06558" />
      </g>
      <g
         id="g2183"
         style="stroke-width:0.486549">
        <path
           style="fill:#a2792a;fill-opacity:1;stroke-width:0.128733"
           d="m 94.252195,192.10186 c 0.0048,-0.2019 0.664363,-4.77218 1.465577,-10.15618 0.801211,-5.384 1.458003,-10.06441 1.459537,-10.40091 0.0021,-0.47946 4.344111,-0.61181 20.070511,-0.61181 15.7268,0 20.06818,0.13234 20.06978,0.61181 0.001,0.3365 0.55084,4.90678 1.2216,10.15618 0.67076,5.2494 1.22048,9.81968 1.2216,10.15618 0.002,0.46125 -1.73418,0.61182 -7.05296,0.61182 h -7.05501 l -0.16448,-5.54634 c -0.15414,-5.1972 -0.25081,-5.6594 -1.5358,-7.34233 -1.87689,-2.45815 -3.95352,-3.45452 -7.24226,-3.47482 -2.18386,-0.0135 -3.15064,0.25477 -4.76254,1.32147 -3.13411,2.07405 -3.99962,4.26571 -3.99962,10.12797 v 4.91405 h -6.85239 c -3.768809,0 -6.8484,-0.16519 -6.843545,-0.36709 z"
           id="path1598" />
        <path
           style="fill:#a2792a;fill-opacity:1;stroke-width:0.128733"
           id="path2171"
           d="m 108.70572,170.36544 c -0.44586,0.0453 -0.89469,0.0391 -1.34215,0.0512 -0.22935,0.009 -0.45713,0.0384 -0.68551,0.0597 -0.22678,0.0168 -0.45437,0.0145 -0.68161,0.0164 -0.28595,0.002 -0.57218,0.009 -0.85761,-0.0108 -0.25244,-0.0339 -0.50475,-0.0563 -0.75936,-0.0632 -0.25353,-0.0166 -0.50484,0.009 -0.75636,0.0363 -0.2933,0.0398 -0.58637,0.0767 -0.88163,0.0981 -0.4467,0.0228 -0.89431,0.0295 -1.34154,0.0266 -0.42217,-0.008 -0.84259,-0.0433 -1.26467,-0.0537 -0.372927,-0.0238 -0.748484,-0.0234 -1.120084,-0.064 -0.255917,-0.0309 -0.265967,-0.10845 -0.440417,-0.25361 -0.328807,-0.17951 -0.746859,-0.0891 -1.101975,-0.0417 -0.576852,0.0994 -0.919062,0.35662 -1.4741,0.76808 -0.105637,0.0783 0.150599,0.56462 0.184868,0.63027 0.292137,0.43606 0.662302,0.65773 1.197983,0.55359 0.101309,-0.0197 0.197773,-0.0591 0.296658,-0.0886 0.867646,-0.40006 1.684053,-0.89953 2.336597,-1.59548 0.0131,-0.0167 0.14426,-0.15206 0.12217,-0.21305 -0.0168,-0.0465 -0.0511,-0.10016 -0.0996,-0.11003 -0.163407,-0.0333 -0.761764,0.12542 -0.831634,0.14304 -0.22105,0.0558 -0.439967,0.11967 -0.659957,0.1795 -0.837509,0.24154 -1.686329,0.53986 -2.495719,0.82533 0.06734,0.0195 0.254442,0.012 0.20201,0.0586 -0.231254,0.20527 -0.541084,0.30075 -0.798984,0.47134 -0.113559,0.0751 0.242348,-0.12421 0.364654,-0.18404 0.368078,-0.18004 0.741442,-0.34646 1.118653,-0.50617 0.02463,-0.008 0.447585,-0.18092 0.489879,-0.099 0.01349,0.0261 -0.09609,0.38632 -0.104976,0.41857 -0.0053,0.027 -0.06636,0.23792 -0.0084,0.27996 0.191918,0.13916 0.4147,0.0275 0.602906,-0.0321 0.0723,-0.0229 0.930137,-0.33057 0.984227,-0.34992 0.174827,-0.0609 0.600514,-0.21325 0.801814,-0.27028 0.0604,-0.0171 0.12368,-0.0222 0.1842,-0.0387 0.006,-0.002 -0.0109,-0.008 -0.017,-0.007 -0.0391,0.005 -0.0824,0.003 -0.11566,0.0243 -0.0477,0.0303 -0.0777,0.0821 -0.11655,0.12309 -0.001,0.002 -0.170707,0.1729 -0.12129,0.22569 0.18592,0.19858 0.47873,0.0923 0.693257,0.0617 0.4935,-0.0704 0.98439,-0.15795 1.47715,-0.23336 0.57285,-0.0515 1.1518,-0.19689 1.73152,-0.14855 0.0785,0.007 0.23259,0.0208 0.21522,0.0976 -0.005,0.0245 -0.0344,0.0366 -0.0517,0.0549 -0.005,0.0137 -0.0726,0.16006 -0.0423,0.18724 0.18087,0.16253 0.35917,0.0701 0.56785,0.0175 0.30583,-0.0772 0.58294,-0.17513 0.88183,-0.27431 0.60249,-0.22247 0.89223,-0.3918 1.42071,-0.96975 0.0561,-0.0614 -0.16665,-0.004 -0.24954,0.003 -0.20696,0.0174 -0.4114,0.0574 -0.61729,0.0847 -0.2226,0.0269 -0.44628,0.0341 -0.66443,-0.0251 -0.14755,-0.04 -0.17968,-0.0716 -0.32499,-0.12557 -0.0727,-0.027 -0.14706,-0.049 -0.22059,-0.0735 -0.5616,-0.13825 -1.14581,-0.10271 -1.71921,-0.0991 -0.55233,-0.008 -1.10377,-0.0225 -1.65477,0.0238 -0.4817,0.0384 -0.20666,0.002 -1.059777,0.76912 -0.0367,0.033 0.0984,-0.009 0.147607,-0.0129 0.3052,-0.0253 0.61001,-0.0396 0.91603,-0.0509 0.24415,0.004 0.49346,-0.0199 0.73666,0.0158 0.0191,0.003 0.0386,0.0312 0.0545,0.0201 0.31985,-0.22227 0.64847,-0.43787 0.93159,-0.70538 0.0709,-0.067 -0.18595,0.0591 -0.27891,0.0887 -0.39543,0.0915 -0.79499,0.16525 -1.19706,0.22075 -0.23663,0.0327 -0.46413,0.0648 -0.7009,0.0307 0.5478,-0.11942 -0.33328,0.25053 -0.791307,0.53494 -0.0472,0.0293 0.0996,-0.0491 0.15027,-0.0718 0.0339,-0.0152 0.10368,-0.005 0.10336,-0.0419 -5.3e-4,-0.0614 -0.07,-0.10097 -0.10503,-0.15146 0.318007,-0.19324 0.652047,-0.36227 0.954017,-0.57972 0.0771,-0.0555 -0.18116,0.0575 -0.27115,0.088 -0.10844,0.0368 -0.21731,0.0725 -0.32409,0.11384 -0.671957,0.26003 -1.277024,0.69365 -1.884178,1.06171 -0.460601,0.45043 -0.584344,0.96669 -0.697986,1.57903 -0.0186,0.12782 -0.03738,0.2556 -0.05582,0.38344 -0.04568,0.31656 -0.07156,0.55031 -0.146066,0.86464 -0.11329,0.4779 -0.283829,0.93741 -0.455105,1.39655 -0.08511,0.19268 -0.141189,0.39616 -0.217469,0.59209 -0.174109,0.44721 -0.748292,1.00241 1.087644,-0.57982 0.0744,-0.0641 0.0113,-0.19609 0.01611,-0.29418 0.007,-0.14343 0.01302,-0.2869 0.0195,-0.43035 0.0245,-0.95537 0.0238,-1.91374 -0.05665,-2.86656 -0.04194,-0.16313 -0.01288,-0.45093 -0.168034,-0.57656 -0.03269,-0.0265 -0.08037,-0.0654 -0.117599,-0.0458 -1.214869,0.63916 -1.008968,0.3632 -1.359665,1.00861 -0.385397,0.74623 -0.556866,1.57045 -0.592566,2.40426 0.01159,0.0615 0.0021,0.13112 0.03477,0.1845 0.02574,0.042 0.08232,0.10113 0.125762,0.0778 0.432207,-0.23192 0.847309,-0.50058 1.231161,-0.80593 0.08983,-0.0715 0.109234,-0.20193 0.163158,-0.30326 0.205859,-0.38685 0.176433,-0.33367 0.375449,-0.72638 0.05376,-0.10306 0.102609,-0.20883 0.16128,-0.30918 0.03976,-0.068 0.204346,-0.22951 0.133514,-0.19502 -0.354272,0.17249 -0.668578,0.41726 -1.006435,0.62003 -0.01582,0.01 -0.04711,-0.002 -0.05304,0.0158 -0.02318,0.0683 -0.0154,0.14353 -0.02529,0.21501 -0.01265,0.0915 -0.02821,0.18258 -0.04231,0.27387 -0.141717,0.75031 -0.419,0.95073 1.0796,-0.22366 0.07532,-0.059 0.03361,-0.18857 0.05713,-0.28133 0.03574,-0.14096 0.08033,-0.27953 0.120497,-0.4193 0.23476,-0.73884 0.495337,-1.46901 0.739457,-2.20472 0.15663,-0.45236 0.0546,-0.12644 -1.150644,0.55787 -0.04512,0.0256 0.05156,0.21324 0.08531,0.19545 0.402027,-0.21189 0.771587,-0.48037 1.157384,-0.72055 0.0624,-0.14597 0.14442,-0.28223 0.231227,-0.41472 0.0115,-0.0175 0.0547,-0.0608 0.036,-0.0515 -1.254579,0.62676 -1.051614,0.21661 -1.281736,0.83976 -0.398327,0.91485 -0.570645,1.89269 -0.698971,2.87529 -0.0862,0.55877 -0.07355,1.12444 -0.105558,1.68689 -0.0011,0.0177 -0.05748,0.75549 -0.05779,0.75955 -0.06568,0.68218 -0.0828,1.38737 -0.27768,2.05001 -0.02685,0.0913 -0.0687,0.17748 -0.103053,0.26622 0.3062,-0.2075 0.652838,-0.36524 0.918599,-0.62251 0.04616,-0.0447 -0.109014,-0.0724 -0.147984,-0.12347 -0.06843,-0.0897 -0.123407,-0.18996 -0.169669,-0.29285 -0.125998,-0.28023 -0.213114,-0.60753 -0.248817,-0.9114 -0.02114,-0.18002 -0.01577,-0.36218 -0.02365,-0.54327 0.03891,-1.06282 0.393774,-2.06667 0.796777,-3.03861 0.135096,-0.30169 0.244468,-0.61646 0.415328,-0.90104 0.0282,-0.0469 0.0586,-0.0928 0.0943,-0.13428 0.0166,-0.0193 0.0834,-0.0578 0.061,-0.0459 -0.389208,0.20659 -0.774659,0.42019 -1.161993,0.63028 -0.171188,0.55529 -0.391136,1.09438 -0.587875,1.641 -0.229462,0.64401 -0.396626,1.30544 -0.51858,1.97736 -0.102474,0.62405 -0.199748,1.24888 -0.295313,1.87401 -0.06061,0.53333 -0.179144,1.05554 -0.299548,1.57754 -0.119173,0.50505 -0.252409,1.00737 -0.397025,1.50578 -0.138811,0.50919 -0.274299,1.01969 -0.377225,1.5375 -0.07692,0.40273 -0.144909,0.808 -0.195823,1.21494 -0.03631,0.43299 -0.06064,0.86699 -0.09206,1.30041 -0.03822,0.50964 -0.08568,1.01856 -0.131149,1.52762 -0.03575,0.42509 -0.06182,0.85098 -0.08469,1.27694 -0.0095,0.40119 -0.04152,0.80139 -0.04407,1.2027 0.0033,0.40428 0.01148,0.8085 0.01548,1.21278 0.0085,0.37967 -0.02096,0.75838 -0.04789,1.13672 -0.01334,0.26886 -0.04614,0.53885 -0.01873,0.80763 0.02159,0.18113 0.06595,0.358 0.115001,0.5333 0.03028,0.14996 0.106408,0.25224 0.255109,0.29114 0.349284,0.003 0.695743,-0.0798 1.038352,-0.14136 0.316921,-0.0536 0.63083,-0.11992 0.938504,-0.2131 0.450643,-0.18808 1.764335,-0.38802 1.405315,-0.9245 -0.02762,-0.0413 -0.06939,-0.071 -0.104087,-0.10656 -0.673121,-0.40394 -1.36775,-0.77477 -2.059905,-1.14595 -0.942134,-0.47841 -0.745628,-0.26471 -1.902619,0.46991 -0.01386,0.30331 0.101738,0.59887 0.178163,0.88946 0.06164,0.2335 0.126658,0.46713 0.13345,0.70953 -0.0019,0.12542 0.0091,0.27461 -0.101208,0.35568 -0.117909,0.0476 -0.253185,0.16366 -0.0711,0.26969 0.03833,0.0223 0.08725,0.0161 0.130871,0.0241 0.471135,0.004 0.940228,-0.0429 1.408837,-0.0851 0.331288,-0.0409 0.669761,-0.0268 0.996728,-0.099 0.389705,-0.11118 1.537136,-0.48491 1.096259,-0.89897 -0.124262,-0.11671 -0.293646,-0.19597 -0.437986,-0.27707 -0.489456,-0.28427 -1.035077,-0.45009 -1.543643,-0.69162 -0.330618,0.24676 -0.708361,0.44057 -0.991854,0.74029 -0.05642,0.0596 0.160192,0.0361 0.24022,0.0544 0.12717,0.0291 0.254474,0.0576 0.381371,0.0879 0.62734,0.14963 1.24656,0.32137 1.86645,0.49896 0.429284,0.11866 0.856586,0.24475 1.281323,0.37882 0.0605,0.0191 0.12181,0.0362 0.180977,0.0592 0.006,0.002 0.006,0.0197 0.0115,0.0156 0.30216,-0.24924 0.596047,-0.50833 0.894067,-0.7625 -0.394127,-0.0834 -0.781887,-0.19312 -1.164254,-0.31944 -0.280606,-0.0927 -0.512759,-0.16903 -0.758554,-0.33054 -0.01061,-0.0236 -0.04993,-0.0523 -0.0318,-0.0707 0.02392,-0.0243 0.129405,-0.0215 0.102261,-7.9e-4 -0.279426,0.21229 -0.638966,0.32636 -0.873884,0.58704 -0.08027,0.0891 0.239453,-0.0169 0.359352,-0.0161 0.322067,0.002 0.642167,0.0376 0.962455,0.066 0.35021,0.0416 0.702247,0.0846 1.044084,0.17465 0.0534,0.014 0.10751,0.0274 0.15793,0.0499 0.006,0.003 -0.0134,0.0204 -0.008,0.0169 0.32135,-0.22017 0.639197,-0.44541 0.958794,-0.66811 -0.251287,0.0996 -0.527217,0.12464 -0.795904,0.13083 -1.458793,1.02368 -1.253684,0.70097 -0.570977,0.7604 0.284347,0.0248 0.565067,0.0731 0.845534,0.12419 0.529067,0.14553 0.23225,0.30677 1.124227,-0.64764 0.0645,-0.069 -0.18883,0.0119 -0.2831,0.007 -0.2787,-0.0146 -0.619097,-0.0747 -0.891147,-0.11646 -0.893624,-0.16818 -1.777141,-0.38557 -2.663874,-0.58623 -0.425034,-0.087 -0.854075,-0.22063 -1.29168,-0.18049 -0.711911,0.12303 -1.237088,0.52599 -1.874326,0.89177 -0.05286,0.0688 -0.087,0.0797 0.03453,0.1745 0.152733,0.11916 0.650047,-0.007 0.785315,-0.0289 0.185918,-0.0307 0.371615,-0.0627 0.557424,-0.0941 0.196014,-0.0299 0.391885,-0.0607 0.588045,-0.0897 0.228854,-0.0337 0.681614,-0.10173 0.931833,-0.11834 0.08562,-0.006 0.17195,-0.008 0.25744,-2.7e-4 0.0344,0.003 0.08357,2.7e-4 0.09872,0.0314 0.01148,0.0235 -0.05178,0.008 -0.07767,0.0118 -0.04879,0.0319 -0.09597,0.0665 -0.146365,0.0958 -0.07546,0.0439 -0.303951,0.17145 -0.230844,0.12373 0.255165,-0.16656 0.536406,-0.29441 0.777603,-0.48063 0.07927,-0.0612 -0.187481,0.071 -0.283573,0.0992 -0.195736,0.0574 -0.254963,0.0574 -0.44582,0.0801 -0.05199,-0.0101 -0.224459,0.0266 -0.269391,-0.0446 -0.0054,-0.009 -1.77e-4,-0.0203 -0.0021,-0.0302 -0.01289,-0.066 -0.01386,-0.0512 -0.06043,-0.11171 -0.02803,-0.0149 -0.05279,-0.0394 -0.08409,-0.0449 -0.10753,-0.0188 -0.285412,0.0283 -0.378027,0.0476 -0.1935,0.0401 -0.385963,0.0848 -0.578138,0.13079 -0.502751,0.13657 -0.817412,0.42147 -1.30057,0.77886 -0.04831,0.0357 0.100312,0.29202 0.114546,0.32004 0.07353,0.0979 0.139301,0.25017 0.26593,0.29574 0.03674,0.0132 0.08497,0.0307 0.116848,0.008 0.381347,-0.26964 0.796671,-0.51287 1.099616,-0.86833 0.07871,-0.0923 -0.03505,-0.24012 -0.05258,-0.36019 -0.198279,-1.06365 -0.647253,-2.06277 -0.859967,-3.12249 -0.05181,-0.2581 -0.07826,-0.52064 -0.117396,-0.78096 -0.06283,-0.69287 -0.04796,-1.38992 0.02924,-2.08081 0.01175,-0.10522 0.07017,-0.59747 0.144989,-0.74409 0.01609,-0.0315 0.06215,-0.0338 0.09322,-0.0507 -0.359723,0.22971 -0.769456,0.39546 -1.07917,0.68913 -0.0696,0.066 0.04051,0.18766 0.05442,0.28256 0.02177,0.14853 0.0369,0.29797 0.05258,0.44726 0.06554,0.6242 0.115125,1.25034 0.172161,1.87535 0.04163,0.49762 0.09877,0.99427 0.134239,1.49243 0.0047,0.0661 -0.04939,0.23091 0.0084,0.19856 1.192496,-0.66732 1.159976,-0.41732 0.958408,-1.10361 -0.09887,-0.37779 -0.127664,-0.76698 -0.158454,-1.15448 -0.01564,-0.19673 -0.007,-0.408 -0.09524,-0.58848 -0.400143,0.23279 -0.831919,0.41819 -1.200425,0.69839 -0.07055,0.0536 -0.04225,0.17224 -0.05904,0.25926 -0.08616,0.44636 -0.128569,0.89875 -0.148024,1.35234 0.01,-0.14064 -0.02315,0.32926 0.06015,0.28159 0.416272,-0.23819 0.855686,-0.46202 1.195729,-0.80024 0.107058,-0.10648 0.04154,-0.29913 0.06023,-0.44896 0.147471,-1.18218 -0.0063,-0.069 0.17847,-1.3548 0.112374,-0.68367 0.220453,-1.36817 0.349284,-2.049 0.03069,-0.16216 0.07496,-0.51526 0.168299,-0.68962 -0.39511,0.23398 -0.822185,0.42089 -1.185328,0.70193 -0.06878,0.0532 -0.03431,0.17052 -0.05202,0.25566 -0.03907,0.18782 -0.07658,0.37598 -0.119076,0.56305 -0.01368,0.0603 -0.102502,0.20295 -0.0452,0.1798 0.399534,-0.16139 0.756288,-0.4132 1.134433,-0.61981 0.0071,-0.0661 0.01648,-0.13204 0.02125,-0.19838 0.0419,-0.58231 0.0089,-0.46764 0.08809,-1.13441 0.07974,-0.6713 0.208608,-1.33093 0.355282,-1.99008 0.03726,-0.13079 0.06941,-0.26315 0.111794,-0.39236 0.167135,-0.50953 0.590955,-0.70585 -1.016709,0.42663 -0.04554,0.0321 -0.02053,0.10971 -0.02495,0.16524 -0.01426,0.17929 -0.0181,0.52074 -0.02154,0.69437 0.01696,0.15391 -0.02654,0.68433 0.0736,0.81776 0.0302,0.0402 0.09306,0.0906 0.136271,0.0648 0.425143,-0.25354 0.856054,-0.51619 1.20659,-0.8657 0.105799,-0.10548 0.06658,-0.29129 0.09987,-0.43693 0.09555,-0.56194 0.156314,-1.12895 0.221473,-1.69497 0.02706,-0.23507 0.09391,-0.53733 0.04834,-0.776 -0.402442,0.21145 -0.824584,0.38905 -1.20733,0.63436 -0.05225,0.0335 -0.04202,0.11694 -0.0583,0.17682 -0.06598,0.24271 -0.103217,0.49046 -0.0693,0.74022 0.423879,0.38273 0.222978,0.25531 1.235634,-0.72842 0.07935,-0.0771 0.02069,-0.22028 0.03072,-0.33045 0.03233,-0.35541 0.06403,-0.71089 0.09442,-1.06648 0.0044,-0.0626 0.01947,-0.12535 0.01336,-0.18782 -0.0029,-0.0299 -0.01384,-0.0966 -0.03965,-0.0811 -0.396716,0.23766 -0.794745,0.48257 -1.141423,0.78864 -0.04352,0.0384 -0.01894,0.53635 -0.0095,0.62158 0.258466,0.46742 0.104262,0.24645 1.236919,-0.62095 0.07284,-0.0558 0.04093,-0.17888 0.06113,-0.26838 0.09114,-0.40387 0.184835,-0.80709 0.277923,-1.21052 0.07233,-0.27175 0.07766,-0.32937 0.172575,-0.56869 0.0172,-0.0434 0.03077,-0.0898 0.05931,-0.12674 0.0091,-0.0117 0.05712,-0.0139 0.04404,-0.007 -1.205492,0.65043 -1.133502,0.17299 -1.176684,0.73776 -0.0016,0.033 -0.01418,0.2076 -0.0011,0.25087 0.0088,0.0289 0.02463,0.0893 0.05111,0.0748 0.402111,-0.22093 0.800912,-0.45521 1.160325,-0.74038 0.06281,-0.0498 0.03949,-0.15558 0.06477,-0.23168 0.03628,-0.10923 0.07984,-0.21591 0.119758,-0.32387 0.114665,-0.27571 0.17621,-0.44563 0.318609,-0.70536 0.04561,-0.0832 0.237125,-0.28131 0.15114,-0.2412 -1.17571,0.54848 -1.027004,0.33233 -0.934714,1.01837 0.03797,0.13663 0.0083,0.50996 0.08704,0.63299 0.02267,0.0354 0.06669,0.0931 0.103335,0.0724 1.197097,-0.67453 1.038807,-0.37737 1.260997,-1.0661 0.099,-0.3243 0.201967,-0.64707 0.325097,-0.96311 0.024,-0.0616 0.0456,-0.12437 0.0753,-0.18338 0.0102,-0.0203 0.0644,-0.0618 0.0436,-0.0525 -0.400147,0.17784 -0.791887,0.37405 -1.187825,0.56107 -0.0164,0.0967 -0.10297,0.21663 -0.107405,0.31288 -0.0011,0.022 0.0036,0.0709 0.02358,0.0617 0.410101,-0.19082 0.815553,-0.39491 1.20108,-0.6315 0.0503,-0.0309 0.0553,-0.10429 0.0829,-0.15643 0.498157,-0.93842 1.185594,-1.76043 2.000131,-2.44083 0.24212,-0.20225 0.49938,-0.38564 0.74907,-0.57847 1.36971,-0.98391 2.81253,-1.85872 4.22852,-2.77303 0.66641,-0.39927 1.28219,-0.86945 1.89859,-1.33951 0.38401,-0.27878 1.22896,-0.66483 -0.69941,0.39911 -0.009,0.005 -0.01,-0.025 -0.0201,-0.0239 -0.0487,0.005 -0.0968,0.0201 -0.14111,0.0411 -0.10579,0.0501 -0.20449,0.11392 -0.30674,0.17088 0.17715,-0.12326 0.6078,-0.16794 0.53143,-0.36978 -0.0741,-0.19578 -0.39154,0.14878 -0.59089,0.21262 -0.44588,0.14279 -0.92004,0.26152 -1.39065,0.28042 -0.0775,0.003 -0.15486,-0.008 -0.23229,-0.0122 -0.0406,-0.0136 -0.0847,-0.0196 -0.1219,-0.0408 -0.0144,-0.008 -0.0298,-0.0271 -0.0252,-0.043 0.006,-0.0205 0.12064,-0.053 0.12022,-0.0528 -0.98424,0.61042 -1.40068,0.68206 -0.92778,0.58955 0.037,0.012 0.0769,0.0174 0.11108,0.0361 0.33658,0.18488 0.46651,0.71435 0.56346,1.05024 0.0612,0.16916 0.11237,0.78456 0.29119,0.86916 0.0456,0.0216 0.10721,0.0348 0.151,0.01 0.4235,-0.24204 0.81803,-0.53157 1.22705,-0.79736 0.20732,-0.22346 0.40667,-0.4597 0.64016,-0.65729 0.059,-0.05 0.25516,-0.17431 0.18764,-0.13656 -1.09726,0.61344 -1.26578,0.65875 -0.83667,0.52288 0.0241,0.004 0.0499,0.001 0.0723,0.0108 0.10303,0.0439 0.16239,0.16992 0.24917,0.23453 0.15484,0.1153 0.17545,0.0998 0.36118,0.14309 0.0606,-0.006 0.12792,0.01 0.18185,-0.0184 0.41526,-0.21828 0.82673,-0.44761 1.21249,-0.71459 0.0531,-0.0367 0.0814,-0.28938 0.064,-0.33958 -0.0245,-0.0704 -0.0677,-0.14078 -0.12963,-0.18226 -0.10542,-0.0706 -0.23563,-0.0942 -0.35345,-0.14129 -0.20854,-0.0297 -0.41604,-0.0681 -0.62564,-0.0892 -0.61804,-0.0621 -1.33492,-0.0821 -1.94768,-0.0868 -0.73546,-0.006 -1.45093,0.008 -2.18394,0.0666 -0.31167,0.0251 -0.62155,0.0689 -0.93233,0.10337 -0.83898,0.13575 -1.67153,0.35125 -2.439997,0.72111 -0.557437,0.2683 -1.065874,0.62843 -1.593931,0.95072 -0.302436,0.29727 -0.399554,0.71514 -0.525213,1.10649 -0.135001,0.60631 -0.395732,1.172 -0.610341,1.75212 -0.237458,0.6437 -0.490741,1.28247 -0.667837,1.94612 -0.01773,0.53191 -0.03343,0.36041 1.222108,-0.63051 0.09591,-0.0757 0.07427,-0.23279 0.112112,-0.34896 0.147047,-0.45135 0.301701,-0.89765 0.471761,-1.34082 -0.356205,0.22503 0.349897,-0.50322 0.20538,-0.43425 -0.39112,0.18665 -0.788489,0.37767 -1.126986,0.6483 -0.07608,0.0608 -0.02925,0.1926 -0.045,0.28872 -0.101155,0.6176 -0.07481,0.45311 -0.208444,1.12685 -0.125521,0.61442 -0.268692,1.22542 -0.387929,1.84114 -0.02865,0.14792 -0.129799,0.68541 -0.130601,0.86618 -5.29e-4,0.0942 0.02823,0.1863 0.04235,0.27945 0.0609,0.0494 0.106047,0.13169 0.18271,0.14813 0.232273,0.0498 0.509228,-0.12664 0.684327,-0.22961 0.463592,-0.27262 0.923293,-0.55191 1.37988,-0.8361 0.367847,-0.25757 0.19091,-0.14312 0.527887,-0.34783 -0.309177,0.19771 -0.639007,0.36635 -0.927524,0.59315 -0.028,0.022 0.0582,0.0485 0.0674,0.0829 0.0198,0.0742 0.0195,0.15309 0.0161,0.2298 -0.0159,0.35727 -0.11352,0.71504 -0.19203,1.0619 -0.0102,0.0439 -0.1103,0.39621 -0.0775,0.4863 0.0168,0.0462 0.0725,0.11579 0.11545,0.0919 0.448197,-0.24948 0.875844,-0.54 1.272954,-0.86469 0.0341,-0.0279 0.486107,-0.77591 0.493647,-0.78826 -0.39494,0.21934 0.598697,-0.70954 0.374607,-0.61977 -0.385417,0.15439 -0.724947,0.4053 -1.080034,0.62049 -0.0397,0.0241 -0.0814,0.0536 -0.1015,0.0955 -0.0493,0.10296 -0.322657,0.99327 -0.324407,0.99888 -0.30022,1.02462 -0.508087,2.04777 -0.524027,3.11858 -0.01,0.64595 0.0246,0.87977 0.0772,1.50882 0.086,0.98298 0.485777,1.88541 0.795224,2.80919 0.15545,0.55745 0.20405,1.13604 0.20204,1.71263 -0.0194,0.4498 6e-5,0.90336 -0.0534,1.35134 -0.0352,0.29478 -0.0592,0.35313 -0.13042,0.6396 -0.14087,0.55359 -0.381757,1.06464 -0.652017,1.56436 -0.183347,0.27971 -0.324357,0.6282 -0.598617,0.8376 -0.06652,0.0508 -0.286891,0.1723 -0.217128,0.12607 0.261038,-0.17301 0.527498,-0.33771 0.791245,-0.50657 -0.74549,0.22268 -1.477746,-0.003 -2.182212,-0.25839 -0.373745,-0.18174 -0.894546,-0.3342 -1.144614,-0.69696 -0.03665,-0.0532 -0.06157,-0.11355 -0.09235,-0.17032 -0.167791,-0.46029 -0.146457,-0.9613 -0.170669,-1.4442 -0.0026,-0.29865 -0.06222,-0.5983 -0.04378,-0.89741 0.0082,-0.1328 0.03934,-0.27077 0.06392,-0.40035 0.02691,-0.0849 0.04843,-0.17168 0.08073,-0.25466 0.152943,-0.39299 0.385683,-0.75894 0.590235,-1.12556 0.463735,-0.83115 0.160785,-0.28304 0.655082,-1.18352 0.48994,-0.90908 1.043011,-1.78278 1.528731,-2.6942 0.28251,-0.53011 0.38633,-0.76492 0.639957,-1.30025 0.0632,-0.1491 0.38247,-0.87647 0.42547,-1.06968 0.135647,-0.60948 -0.0152,-1.28066 -0.16783,-1.87065 -0.20775,-0.61213 -0.456717,-1.20845 -0.663547,-1.82136 -0.174733,-0.51918 -0.220652,-1.06156 -0.10181,-1.59827 0.0222,-0.10036 0.0552,-0.19802 0.0829,-0.29702 0.16013,-0.48093 0.447107,-0.89794 0.758947,-1.29134 0.294417,-0.39538 0.543657,-0.82299 0.746424,-1.27185 0.16503,-0.41036 0.25974,-0.84361 0.20585,-1.28508 -0.0408,-0.17667 -0.019,-0.0924 -0.0645,-0.25311 0,0 -1.118664,0.61071 -1.118664,0.61071 v 0 c 0.0447,0.14764 0.0241,0.0706 0.0606,0.23135 0.0494,0.42 -0.0482,0.82882 -0.218327,1.21346 -0.21204,0.44189 -0.46181,0.86447 -0.765992,1.25001 -0.30521,0.40402 -0.572248,0.83926 -0.718571,1.3281 -0.02513,0.10263 -0.05576,0.20408 -0.07542,0.3079 -0.105185,0.5557 -0.05071,1.11557 0.129583,1.64971 0.100935,0.30195 0.201811,0.60319 0.318822,0.89941 0.07649,0.19364 0.163405,0.38312 0.237869,0.57755 0.04176,0.10904 0.07799,0.2201 0.116991,0.33015 0.118356,0.42701 0.225525,0.8497 0.21183,1.29815 -0.0051,0.16665 -0.01905,0.33447 -0.05614,0.49701 -0.05364,0.23496 -0.317339,0.84744 -0.398367,1.04475 -0.274876,0.58955 -0.317299,0.70061 -0.630712,1.28746 -0.487217,0.9123 -1.034364,1.7913 -1.534443,2.6964 -0.450961,0.7902 -0.260707,0.46195 -0.691819,1.19879 -0.270139,0.46171 -0.574675,0.91818 -0.709128,1.44249 -0.03566,0.18557 -0.05617,0.24617 -0.06059,0.42734 -0.0073,0.29819 0.06037,0.59418 0.06229,0.89213 0.02066,0.50338 -7.93e-4,1.0229 0.1845,1.50045 0.08777,0.16378 0.104028,0.2278 0.241813,0.35494 0.299754,0.27659 0.722114,0.39283 1.080397,0.56452 0.509283,0.18962 1.037894,0.39043 1.588217,0.41195 0.228981,0.009 0.398597,-0.0309 0.622657,-0.0679 0.448443,-0.23654 0.90226,-0.46316 1.34534,-0.70961 0.0758,-0.0422 0.145227,-0.0963 0.209127,-0.155 0.25568,-0.23484 0.394787,-0.57468 0.576047,-0.86246 0.27102,-0.50662 0.501587,-1.02766 0.631777,-1.59044 0.0681,-0.30135 0.0879,-0.3475 0.11992,-0.65629 0.0469,-0.45214 0.0318,-0.90887 0.0547,-1.36227 -0.003,-0.58855 -0.0416,-1.18459 -0.22424,-1.74818 -0.334497,-0.89997 -0.759597,-1.77457 -0.850104,-2.7461 -0.0608,-0.60835 -0.10276,-0.85708 -0.091,-1.48282 0.0199,-1.06168 0.246747,-2.10099 0.573537,-3.10781 0.0741,-0.20176 0.143667,-0.40524 0.222247,-0.60529 0.0566,-0.14415 0.13652,-0.2793 0.1832,-0.42697 0.0281,-0.0889 0.12893,-0.30318 0.0394,-0.2771 -1.127084,0.32825 -1.051354,0.47169 -1.470051,1.19512 -0.0876,0.13821 -0.17138,0.27888 -0.26272,0.41463 -0.0863,0.1282 -0.424387,0.37803 -0.269867,0.37691 0.325367,-0.002 0.589067,-0.28086 0.898494,-0.38147 0.032,-0.0104 -0.0142,0.12927 -0.0256,0.0976 -0.0327,-0.0909 0.0472,-0.40848 0.0552,-0.44949 0.0736,-0.34954 0.274797,-1.0694 0.16009,-1.40446 -0.0246,-0.0719 -0.0608,-0.20682 -0.13358,-0.18481 -0.443817,0.13425 -0.835287,0.4028 -1.252934,0.60421 -0.2432,0.15947 -0.565138,0.36873 -0.499177,0.34112 0.243366,-0.10187 0.458947,-0.26157 0.698137,-0.37289 0.197067,-0.0917 -0.853553,0.53853 -0.714994,0.26265 -0.01603,-0.0796 -0.04575,-0.15757 -0.04807,-0.23871 -0.0053,-0.18632 0.07452,-0.68303 0.101177,-0.83898 0.1051,-0.61485 0.243837,-1.22351 0.375277,-1.83302 0.0882,-0.38632 0.18144,-0.77154 0.26497,-1.1589 0.0249,-0.11565 0.18568,-0.36216 0.0682,-0.34829 -1.109888,0.13098 -1.081254,0.25518 -1.307354,0.89718 -0.157845,0.44847 -0.305078,0.90277 -0.482214,1.34414 -0.04802,0.11966 -0.28449,0.36128 -0.155755,0.35407 1.189834,-0.0667 1.18486,-0.0507 1.061942,-0.43292 0.140748,-0.661 0.414986,-1.28237 0.641631,-1.91663 0.22641,-0.58665 0.486717,-1.16168 0.642177,-1.77313 0.12483,-0.3736 0.22497,-0.76582 0.540427,-1.02879 -0.27439,0.14818 -0.545217,0.30316 -0.823174,0.44452 -0.11085,0.0564 0.211247,-0.13173 0.321457,-0.18934 0.779424,-0.40749 1.633791,-0.64827 2.494911,-0.80831 0.31559,-0.0408 0.62998,-0.0922 0.94677,-0.1223 1.33801,-0.12717 2.70897,-0.11924 4.04285,0.054 0.1907,0.0248 0.37887,0.0661 0.5683,0.0992 0.0749,0.0257 0.33375,0.0565 0.36824,0.20117 0.0334,0.14013 -0.15865,0.27121 -0.1053,0.24673 1.93498,-0.88804 1.17312,-0.5973 0.81242,-0.46352 -0.0563,-0.003 -0.11419,0.004 -0.1688,-0.0104 -0.23606,-0.0605 -0.29721,-0.33858 -0.52382,-0.41531 -0.044,-6e-5 -0.0931,-0.0206 -0.13206,-1.7e-4 -0.41486,0.21713 -0.81566,0.46051 -1.2149,0.70517 -0.0632,0.0387 -0.11549,0.0932 -0.16994,0.14351 -0.22866,0.21133 -0.43412,0.44674 -0.65221,0.66853 0.30902,-0.1595 0.60738,-0.3416 0.92705,-0.47849 0.0391,-0.0167 -0.0269,0.0913 -0.0653,0.10946 -0.12946,0.0613 -0.26722,-0.72175 -0.2911,-0.78628 -0.13086,-0.46073 -0.2662,-0.99339 -0.7184,-1.23908 -0.54734,-0.14711 -0.15386,-0.0707 -1.2958,0.64142 -0.10741,0.067 -0.0397,0.2637 0.0388,0.31753 0.0468,0.0321 0.10634,0.0399 0.15951,0.0598 0.0881,0.004 0.17617,0.0159 0.26425,0.0119 0.4891,-0.022 0.98121,-0.14683 1.44684,-0.28822 0.19678,-0.0598 0.39885,-0.10875 0.58478,-0.19663 0.52394,-0.24765 1.02643,-0.53834 1.53964,-0.80751 0.11073,-0.073 0.23936,-0.12435 0.3322,-0.21909 0.0522,-0.0532 0.0826,-0.1323 0.0851,-0.20679 0.001,-0.0418 -0.0363,-0.1172 -0.0747,-0.10074 -0.51569,0.22078 -1.02224,0.50293 -1.47345,0.84261 -0.58978,0.45995 -1.18957,0.90571 -1.82603,1.30033 -1.39618,0.90995 -2.81907,1.7809 -4.16902,2.7598 -0.605537,0.47113 -0.875697,0.64782 -1.405954,1.18448 -0.571327,0.57823 -1.034844,1.25176 -1.471831,1.93335 -0.0365,0.0492 -0.166931,0.16899 -0.109493,0.14766 0.380238,-0.14122 0.72875,-0.35724 1.101917,-0.51622 0.0133,-0.006 0.002,0.0524 0.012,0.0417 0.0198,-0.022 0.0165,-0.0568 0.0266,-0.0846 0.0145,-0.0394 0.0299,-0.0785 0.0473,-0.11671 0.0156,-0.0345 0.0344,-0.0676 0.0515,-0.10145 -0.386507,0.16719 -0.779287,0.32056 -1.159519,0.50158 -0.01749,0.008 -0.0076,0.0381 -0.01304,0.0567 -0.01725,0.0587 -0.03606,0.11684 -0.05507,0.17494 -0.105313,0.32175 -0.212686,0.64297 -0.327716,0.96138 -0.03942,0.0899 -0.21341,0.29366 -0.118266,0.26962 0.363731,-0.0919 0.663509,-0.35307 1.010714,-0.49518 0.028,-0.0114 0.008,0.10328 -0.0182,0.089 -0.0375,-0.0202 -0.032,-0.0793 -0.0413,-0.12091 -0.0306,-0.13739 -0.0463,-0.34825 -0.0595,-0.48208 -0.0106,-0.0931 -0.0118,-0.18777 -0.0318,-0.27934 -0.01886,-0.0868 0.002,-0.27627 -0.08394,-0.25303 -0.426842,0.11564 -0.812141,0.35881 -1.184883,0.59678 -0.07745,0.0495 -0.0897,0.1605 -0.130342,0.24291 -0.116266,0.23577 -0.213974,0.47335 -0.317561,0.715 -0.04567,0.11294 -0.09229,0.22549 -0.137007,0.33881 -0.03096,0.0785 -0.17123,0.25917 -0.09,0.23647 1.257697,-0.35161 1.042652,-0.16805 1.082133,-0.68743 0.05916,-0.55235 0.06398,-0.20517 -1.152097,0.32573 -0.01392,0.006 -0.0019,0.0305 -0.0054,0.0452 -0.01035,0.042 -0.02492,0.0829 -0.03639,0.12457 -0.02103,0.0765 -0.04243,0.15289 -0.06111,0.22998 -0.02671,0.11024 -0.05003,0.22127 -0.07505,0.33191 -0.09209,0.40614 -0.17789,0.81865 -0.308449,1.21477 -0.02859,0.0867 -0.189907,0.27565 -0.101015,0.25469 1.610693,-0.37982 1.446218,-0.40838 1.049658,-0.48826 -0.0299,-0.16633 -0.03429,-0.13755 -0.01167,-0.34743 0.0084,-0.0781 0.114739,-0.25079 0.03841,-0.23239 -1.1752,0.28322 -1.084704,0.18703 -1.079674,0.58599 -0.01487,0.35175 -0.03439,0.70538 -0.09278,1.05323 -0.01826,0.10879 -0.179533,0.34305 -0.07101,0.32323 1.078828,-0.197 1.008438,-0.90675 1.037225,-0.40176 -0.154263,-0.92906 0.926234,-1.16574 -0.914837,-0.34101 0.01021,0.019 0.02856,0.0356 0.03063,0.057 0.01154,0.11995 -0.01815,0.56641 -0.02344,0.63359 -0.04475,0.56555 -0.112842,1.13087 -0.244803,1.68344 -0.04878,0.14235 -0.29677,0.42402 -0.146333,0.42703 0.345694,0.007 0.626025,-0.29684 0.952431,-0.4109 0.0341,-0.0119 -0.01789,0.11092 -0.05069,0.0958 -0.04685,-0.0216 -0.04534,-0.094 -0.05514,-0.14464 -0.03328,-0.17191 -0.03033,-0.45082 -0.03368,-0.61765 0.03969,-0.944 -0.01564,0.19127 0.05077,-0.70232 0.0067,-0.0897 0.09664,-0.29306 0.0097,-0.26979 -1.240567,0.33214 -1.100082,0.34933 -1.265743,1.14649 -0.203379,1.13091 -0.37212,2.26665 -0.542663,3.40281 0.381157,-0.17517 0.78304,-0.31091 1.143466,-0.52552 0.04996,-0.0298 0.01767,-0.11496 0.02823,-0.17214 0.03617,-0.19606 0.07194,-0.36512 0.1216,-0.55935 0.02286,-0.0894 0.165696,-0.28018 0.07435,-0.26679 -0.393841,0.0577 -0.745297,0.27983 -1.117944,0.41975 0.06923,0.051 0.01646,0.006 -0.01042,0.21828 -0.0176,0.13887 -0.03599,0.27764 -0.05569,0.41622 -0.0968,0.68102 -0.207764,1.35995 -0.323829,2.03791 -0.02408,0.14705 -0.193262,1.19265 -0.23074,1.3753 -0.03111,0.15162 -0.268079,0.44128 -0.113557,0.45025 0.370465,0.0215 0.694812,-0.26096 1.040284,-0.39644 0.0095,-0.004 -0.02777,0.0103 -0.03066,5.3e-4 -0.01648,-0.0559 -0.0136,-0.11573 -0.02037,-0.17359 0.0049,-0.3315 0.0266,-0.65731 0.08772,-0.98418 0.02138,-0.11428 0.0452,-0.22843 0.07825,-0.3399 0.02482,-0.0837 0.180006,-0.26382 0.09492,-0.24418 -0.378637,0.0874 -0.71162,0.31243 -1.067432,0.46864 0.107632,0.087 0.106971,0.40044 0.11824,0.50277 0.0433,0.39326 0.07197,0.78912 0.159448,1.17617 0.147733,0.67588 0.0092,0.56423 1.239012,-0.0677 0.05558,-0.0285 -0.02699,-0.12205 -0.03811,-0.18354 -0.05831,-0.32228 -0.08221,-0.50465 -0.121555,-0.84826 -0.02336,-0.204 -0.04257,-0.40846 -0.06385,-0.61268 -0.061,-0.67795 -0.06078,-0.62536 -0.103839,-1.30523 -0.0063,-0.0988 -0.04968,-0.90653 -0.0632,-1.05661 -0.01,-0.11097 0.06876,-0.34082 -0.04227,-0.33156 -0.424841,0.0354 -0.801722,0.2902 -1.202584,0.43531 -0.08656,0.25578 -0.09689,0.56175 -0.113887,0.82538 -0.04476,0.69398 -0.04487,1.39099 0.01871,2.08396 0.0392,0.26434 0.06694,0.53062 0.117596,0.793 0.204891,1.06127 0.647867,2.06751 0.777402,3.14542 0.0029,0.11472 -0.105138,0.35982 0.0085,0.34417 0.375319,-0.0517 0.674523,-0.34804 1.027059,-0.48681 0.0332,-0.0131 -0.01056,0.0806 -0.04126,0.0988 -0.08175,0.0484 -0.203578,-0.19338 -0.228412,-0.22588 -0.01638,-0.037 -0.06283,-0.12525 -0.06374,-0.17573 -2.43e-4,-0.0136 0.02747,-0.0441 0.01558,-0.0376 -0.354766,0.19506 -0.699029,0.40872 -1.051809,0.60735 -0.02421,0.0136 0.04092,-0.0385 0.06526,-0.0519 0.03417,-0.0188 0.07234,-0.0292 0.108516,-0.0438 0.313087,-0.0861 0.633015,-0.14359 0.944565,-0.23199 0.03803,0.0142 0.0515,0.11883 0.0713,0.1476 0.08089,0.11753 0.226068,0.11284 0.352562,0.11692 0.875187,-0.08 1.243346,-0.40403 2.119951,-0.89449 0.08197,-0.0459 0.164742,-0.0929 0.235791,-0.15432 0.05424,-0.0469 0.09045,-0.11131 0.135671,-0.16696 -0.008,-0.0592 0.0115,-0.13001 -0.0245,-0.17774 -0.0626,-0.0829 -0.422953,-0.042 -0.435013,-0.041 -0.517829,0.0454 -1.027131,0.16483 -1.543659,0.22053 -0.298574,0.0417 -0.596238,0.0901 -0.895384,0.12749 -0.07091,0.009 -0.14255,0.0108 -0.213556,0.0189 -0.02815,0.003 -0.06538,-0.007 -0.08369,0.0148 -0.0155,0.0183 0.02408,0.12135 0.05966,0.0403 -1.98569,1.1357 -1.167667,0.61742 -0.771292,0.45955 0.141314,-0.0563 0.290587,-0.0919 0.437007,-0.13149 0.434658,-0.0921 0.878972,0.0409 1.307425,0.11347 0.894377,0.18849 1.782512,0.40607 2.679384,0.58285 0.32201,0.0576 0.547837,0.1 0.866197,0.15009 0.0914,0.0144 0.191917,0.0809 0.274617,0.0395 0.411307,-0.20579 0.785337,-0.48114 1.154977,-0.75479 0.0682,-0.0505 -0.42018,-0.0863 -0.24009,-0.0845 -0.28414,-0.0448 -0.56842,-0.0896 -0.853187,-0.13033 -0.0841,-0.012 -0.16829,-0.0231 -0.252547,-0.0338 -0.05,-0.006 -0.10717,-0.0435 -0.15032,-0.0174 -0.379757,0.22982 -0.725697,0.5114 -1.088549,0.76709 0.270242,0.0242 0.579502,-0.0668 0.849299,-0.0854 0.38384,-0.25654 0.789777,-0.48275 1.151504,-0.76962 0.0294,-0.0233 -0.0329,-0.0731 -0.0656,-0.0916 -0.0535,-0.0303 -0.11841,-0.0333 -0.178447,-0.0465 -0.35901,-0.0789 -0.725347,-0.1166 -1.089874,-0.15916 -0.28028,-0.0292 -0.661542,-0.0713 -0.945632,-0.092 -0.116651,-0.008 -0.241444,-0.0604 -0.350418,-0.0179 -0.454737,0.17724 -0.88801,0.41019 -1.305332,0.66325 -0.04225,0.0256 -0.03779,0.097 -0.02835,0.14549 0.0087,0.0446 0.05224,0.0743 0.07836,0.11149 0.06049,0.0365 0.117554,0.0793 0.181472,0.10935 0.154403,0.0725 0.483944,0.17416 0.632693,0.22199 0.374354,0.12037 0.751085,0.23288 1.124995,0.3546 0.405482,-0.22658 0.815099,-0.44591 1.216436,-0.67975 0.0128,-0.007 -0.0297,-5.3e-4 -0.0443,-0.003 -0.0678,-0.0126 -0.13536,-0.027 -0.20254,-0.0427 -0.446097,-0.10425 -0.886839,-0.23042 -1.330369,-0.34467 -0.611653,-0.169 -1.219102,-0.34646 -1.826614,-0.52947 -0.118126,-0.0356 -0.237808,-0.0659 -0.355693,-0.10229 -0.07165,-0.0221 -0.144862,-0.10494 -0.212741,-0.0731 -0.400767,0.18809 -0.751607,0.46802 -1.12741,0.70203 0.548457,0.14046 1.071581,0.3754 1.566044,0.64769 0.082,0.0509 0.166638,0.0978 0.245997,0.15278 0.04645,0.0322 0.08804,0.0709 0.130627,0.10798 0.0105,0.009 0.02469,0.0172 0.02848,0.0307 0.0019,0.006 -0.02275,0.0132 -0.01707,0.01 0.35537,-0.20506 0.710737,-0.41013 1.066078,-0.61525 0.02106,-0.0121 -0.04216,0.0242 -0.06324,0.0364 -0.319804,0.12345 -0.673679,0.0885 -1.008258,0.13957 -0.456404,0.0421 -0.913352,0.0883 -1.37237,0.0813 -0.06458,0.009 -0.125907,-0.0135 -0.08069,0.0749 0.01421,0.0277 0.161542,-0.11775 0.164069,-0.1336 0.06111,-0.13878 0.07198,-0.28335 0.05923,-0.434 -0.01971,-0.2481 -0.09981,-0.48441 -0.158671,-0.72518 -0.04941,-0.18942 -0.17844,-0.5325 -0.14704,-0.72214 0.0044,-0.0267 0.02162,-0.0496 0.03244,-0.0744 -0.347199,0.19631 -0.690406,0.39984 -1.041598,0.58891 -0.02376,0.0128 0.03205,-0.0462 0.05613,-0.0584 0.02906,-0.0147 0.06337,-0.0196 0.09592,-0.0186 0.208582,0.006 0.401643,0.1355 0.591143,0.20176 0.689909,0.33424 1.373049,0.696 1.999437,1.13959 0.336508,0.30214 -0.292282,0.26403 1.104652,-0.54392 0.02901,-0.0168 -0.05958,0.0308 -0.09031,0.0442 -0.05769,0.0251 -0.166976,0.0635 -0.22497,0.0845 -0.307041,0.10586 -0.622083,0.1797 -0.941726,0.23679 -0.329139,0.0605 -0.657905,0.1242 -0.991603,0.15425 -0.02859,0.002 -0.05785,0.0162 -0.08555,0.009 -0.06188,-0.0165 -0.07548,-0.12618 -0.09275,-0.17089 -0.04942,-0.16733 -0.08662,-0.33795 -0.106521,-0.51148 -0.02469,-0.26004 0.0035,-0.52138 0.0136,-0.78158 0.02313,-0.38049 0.05042,-0.76127 0.03867,-1.14277 -0.0042,-0.40355 -0.01222,-0.80707 -0.01357,-1.21064 0.0071,-0.39954 0.03405,-0.79847 0.04597,-1.19789 0.02209,-0.42351 0.04783,-0.84693 0.07953,-1.26982 0.04153,-0.5089 0.08956,-1.01721 0.126651,-1.52647 0.03586,-0.43421 0.06874,-0.86878 0.110299,-1.30245 0.05274,-0.40099 0.109694,-0.80189 0.184349,-1.19941 0.10523,-0.51598 0.242564,-1.02385 0.384974,-1.53069 0.137157,-0.50134 0.274812,-1.00305 0.391422,-1.50957 0.122216,-0.52394 0.22539,-1.05146 0.292922,-1.5856 0.08845,-0.6225 0.176004,-1.2451 0.286047,-1.86428 0.126942,-0.66422 0.293544,-1.3195 0.522221,-1.95673 0.121542,-0.33104 0.24697,-0.66033 0.374523,-0.9891 0.0401,-0.10323 0.1666,-0.41971 0.20312,-0.53886 0.0176,-0.0575 0.0269,-0.11724 0.0404,-0.17585 -0.38713,0.14904 -0.779499,0.28513 -1.161399,0.44711 -0.02154,0.009 -0.02426,0.04 -0.03549,0.0606 -0.02474,0.0452 -0.04988,0.0903 -0.07237,0.13665 -0.141629,0.29202 -0.255373,0.59645 -0.379928,0.89583 -0.383093,0.98657 -0.713108,2.00597 -0.750906,3.07292 0.008,0.18766 0.0031,0.37633 0.0241,0.56299 0.0486,0.43287 0.167241,0.92104 0.407739,1.29212 0.05511,0.085 0.100602,0.26056 0.197546,0.23106 0.442666,-0.13469 0.813268,-0.44156 1.219904,-0.66234 0.223361,-0.75627 0.281274,-1.55165 0.347724,-2.33415 0.0164,-0.19384 0.0499,-0.56946 0.0594,-0.76693 0.0267,-0.55336 0.004,-1.10963 0.0785,-1.66042 0.12725,-1.00343 0.321872,-1.95971 0.771122,-2.87509 0.0315,-0.0718 0.171277,-0.23095 0.0944,-0.21553 -1.191266,0.23891 -0.988399,0.23061 -1.38791,0.88043 1.33163,-0.7111 0.915333,-0.93247 1.078133,-0.48421 0.002,0.004 -0.002,-0.009 -0.001,-0.0129 0.002,-0.0203 0.0288,-0.0683 0.01,-0.0606 -1.162185,0.47687 -1.140487,0.10839 -1.156264,0.56012 -0.138004,0.74648 -0.462833,1.44877 -0.68257,2.17172 -0.04853,0.14634 -0.09919,0.29199 -0.145581,0.43903 -0.03043,0.0964 -0.185291,0.30271 -0.08483,0.29125 1.249259,-0.14261 1.053049,-0.17421 1.179618,-0.86685 0.0058,-0.0334 0.0867,-0.4781 0.08214,-0.53122 -0.007,-0.0799 8e-4,-0.25707 -0.07411,-0.22882 -0.973577,0.36655 -1.07588,0.50199 -1.398021,1.1848 -0.145627,0.28301 -0.226454,0.4507 -0.389522,0.72484 -0.06064,0.10194 -0.307716,0.32137 -0.191003,0.30023 0.345017,-0.0625 0.63096,-0.30731 0.956003,-0.4388 0.02741,-0.0111 -0.02788,0.0912 -0.05089,0.0727 -0.0396,-0.0319 -0.02747,-0.098 -0.0412,-0.14697 -0.0099,-0.82332 0.205033,-1.62944 0.618852,-2.34242 0.05818,-0.0819 0.270333,-0.27582 0.174541,-0.24562 -0.348594,0.10989 -0.64629,0.34211 -0.976657,0.49849 -0.02426,0.0115 0.02566,-0.0613 0.05249,-0.0611 0.02984,2.4e-4 0.05013,0.0359 0.06456,0.062 0.06565,0.11886 0.08745,0.30442 0.1113,0.42662 0.10699,0.94264 0.125095,1.89404 0.06125,2.84078 -0.01466,0.14665 -0.02769,0.29348 -0.04398,0.43996 -0.01175,0.10558 -0.146016,0.32461 -0.04013,0.31615 1.204762,-0.0963 1.044541,-0.14576 1.238962,-0.75499 0.0365,-0.11421 0.0767,-0.22717 0.11506,-0.34075 0.16152,-0.46559 0.32832,-0.93246 0.445012,-1.41195 0.0768,-0.31553 0.10643,-0.5583 0.15775,-0.87569 0.0206,-0.12708 0.0422,-0.25399 0.0633,-0.38099 0.12966,-0.59272 0.272427,-1.09196 0.749891,-1.50105 -0.277054,0.15098 -0.552164,0.30558 -0.831161,0.45292 -0.0944,0.0499 0.18218,-0.11181 0.27726,-0.1604 0.711461,-0.36355 1.517211,-0.37941 2.129961,-0.99874 -0.0327,-0.0522 -0.0437,-0.12775 -0.0982,-0.15657 -0.0363,-0.0192 -0.077,0.0284 -0.11505,0.0437 -0.0526,0.0211 -0.10771,0.0374 -0.1571,0.0652 -0.41492,0.23405 -0.83957,0.4536 -1.234654,0.71979 -0.0455,0.0307 -0.0619,0.0982 -0.0608,0.15303 8e-4,0.0435 0.0441,0.0749 0.0661,0.11236 0.28661,0.0501 0.47332,0.0127 0.764024,-0.0287 0.3965,-0.0565 0.79067,-0.12725 1.1849,-0.19748 0.68395,-0.11968 0.39362,-0.0294 1.39893,-0.84882 0.027,-0.022 -0.0612,-0.0359 -0.0955,-0.0422 -0.25119,-0.0463 -0.5174,0.009 -0.76948,-0.008 -0.65052,0.0188 -0.0368,0.002 -0.65685,0.0168 -0.0763,0.002 -0.15268,0.003 -0.22899,0.006 -0.0433,0.002 -0.0933,-0.0166 -0.1299,0.007 -0.3727,0.23747 -0.72891,0.50035 -1.082344,0.76567 -0.0242,0.0182 0.0592,-0.0132 0.0887,-0.0198 0.551094,-0.0858 1.105464,-0.0734 1.661134,-0.0457 0.56333,-0.007 1.13552,-0.0555 1.6902,0.0691 0.0691,0.0229 0.1393,0.0423 0.20714,0.0686 0.18217,0.0705 0.15397,0.0857 0.33992,0.14454 0.2319,0.0734 0.46907,0.0778 0.7092,0.0469 0.14613,-0.0188 0.45134,-0.0571 0.59938,-0.0791 0.064,-0.01 0.13588,7.9e-4 0.19151,-0.0323 0.37547,-0.2235 0.72666,-0.4855 1.08889,-0.7299 0.0516,-0.0348 -0.10123,0.0735 -0.15698,0.10113 -0.10871,0.054 -0.22323,0.0953 -0.33484,0.14293 -0.41693,0.14307 -0.43417,0.15694 -0.85559,0.2705 -0.10255,0.0276 -0.21085,0.0362 -0.30959,0.0753 -0.0371,0.0147 -0.0486,0.0724 -0.0874,0.0819 -0.0568,0.0138 0.136,-0.23805 0.0442,-0.16982 -1.3e-4,-0.0511 0.0168,-0.10513 -2.7e-4,-0.15323 -0.0871,-0.24395 -0.61329,-0.16202 -0.7628,-0.15036 -0.32786,0.0256 -1.07438,0.1299 -1.37188,0.16942 -0.47223,0.0647 -0.94376,0.13474 -1.41676,0.19356 -0.13395,0.0167 -0.27119,0.0121 -0.40273,0.0425 -0.0411,0.009 -0.0614,0.0652 -0.1027,0.074 -0.0692,0.0147 0.28791,-0.29526 0.12663,-0.17014 0.0402,-0.045 0.0921,-0.0817 0.1205,-0.1349 0.0253,-0.0473 0.11913,-0.25618 -0.0354,-0.27746 -0.0741,-0.0102 -0.14728,0.0279 -0.21904,0.0491 -0.14422,0.0426 -0.724214,0.25087 -0.828984,0.28802 -0.20167,0.0712 -0.737074,0.26118 -0.951491,0.33317 -0.10563,0.0355 -0.21523,0.0597 -0.31838,0.10182 -0.0464,0.0189 -0.0771,0.0792 -0.12716,0.0802 -0.0747,0.001 0.0905,-0.29443 0.0164,-0.22338 0.043,-0.16689 0.14349,-0.40628 0.0373,-0.57288 -0.129332,-0.20284 -0.453462,0.005 -0.598062,0.0371 -0.920084,0.39002 -2.029556,0.87988 -2.824219,1.43419 -0.06656,0.0464 -0.05113,0.15404 -0.0767,0.23106 0.02122,0.005 0.04246,0.0193 0.06366,0.0144 0.08101,-0.0188 0.157152,-0.0545 0.235035,-0.0837 0.133985,-0.0502 0.266504,-0.1042 0.400518,-0.15431 0.634394,-0.23719 1.275929,-0.45541 1.927709,-0.64028 1.100709,-0.28709 0.184373,-0.0609 1.106499,-0.25996 0.068,-0.0147 0.359047,-0.0547 0.243837,-0.12152 -0.0572,-0.0332 -0.006,0.33644 -0.119547,0.15839 -0.15498,0.16041 -0.31314,0.30965 -0.487322,0.44958 -0.0724,0.0582 -0.30448,0.2094 -0.21995,0.17096 0.21708,-0.0987 1.293619,-0.71895 0.508062,-0.26839 -0.0931,0.0352 -0.18333,0.0788 -0.279142,0.1055 -0.49086,0.13706 -0.832325,-0.009 -1.108026,-0.42786 -0.05705,-0.12299 -0.138697,-0.24864 -0.130178,-0.39287 0.0021,-0.0352 0.07712,-0.11103 0.04536,-0.0957 -1.965497,0.95132 -1.141355,0.57511 -0.71469,0.46039 0.328181,-0.057 0.700138,-0.13651 1.023329,-0.0285 0.07282,0.0505 0.11104,0.1116 0.174381,0.17104 0.08776,0.0824 0.202108,0.10561 0.315894,0.13015 0.3748,0.0543 0.757332,0.033 1.134309,0.0694 0.424764,0.0125 0.848834,0.034 1.273528,0.0491 0.44647,0.0108 0.89281,0.002 1.33911,-0.0134 0.2919,-0.0126 0.58207,-0.0364 0.87089,-0.0817 0.24974,-0.0284 0.49849,-0.072 0.7509,-0.0538 0.25269,0.005 0.50425,0.0172 0.75412,0.0574 0.28647,0.0285 0.57363,0.018 0.86117,0.022 0.22771,8e-4 0.45541,-0.002 0.68307,-0.007 0.23487,-0.0107 0.46626,-0.0554 0.70042,-0.0752 0.44086,-0.0238 0.8826,-0.0273 1.32402,-0.0306 0,0 1.03279,-0.76403 1.03279,-0.76403 z" />
      </g>
      <rect
         style="fill:#a2792a;fill-opacity:1;stroke-width:0.128733"
         id="rect2185"
         width="34.099621"
         height="3.6298461"
         x="103.52485"
         y="168.92676" />
      <rect
         style="fill:#a2792a;fill-opacity:1;stroke-width:0.128733"
         id="rect2187"
         width="5.7170644"
         height="22.050079"
         x="106.13604"
         y="188.65094"
         transform="rotate(-8.561945)" />
      <rect
         style="fill:#a2792a;fill-opacity:1;stroke-width:0.128733"
         id="rect2189"
         width="16.773132"
         height="4.7970347"
         x="124.06998"
         y="188.93869" />
      <rect
         style="fill:#a2792a;fill-opacity:1;stroke-width:0.128733"
         id="rect2191"
         width="4.366313"
         height="12.737369"
         x="123.67866"
         y="179.70384" />
      <rect
         style="fill:#a2792a;fill-opacity:1;stroke-width:0.128733"
         id="rect2193"
         width="16.326696"
         height="5.3301773"
         x="109.84187"
         y="172.55659" />
      <rect
         style="fill:#a2792a;fill-opacity:1;stroke-width:0.128733"
         id="rect2195"
         width="6.8724737"
         height="3.1866362"
         x="203.50151"
         y="66.571571"
         transform="rotate(36.969204)" />
      <rect
         style="fill:#a2792a;fill-opacity:1;stroke-width:0.128733"
         id="rect2205"
         width="8.2645607"
         height="2.7020364"
         x="99.55191"
         y="190.32669" />
      <rect
         style="fill:#a2792a;fill-opacity:1;stroke-width:0.128733"
         id="rect2207"
         width="2.5278118"
         height="12.213654"
         x="106.21722"
         y="181.60789" />
      <rect
         style="fill:#a2792a;fill-opacity:1;stroke-width:0.128733"
         id="rect2209"
         width="5.8227859"
         height="7.7899237"
         x="172.33136"
         y="111.2171"
         transform="rotate(25.557342)" />
    </g>
    <path
       style="fill:#bc8731;fill-opacity:1;stroke-width:0.264583"
       d="m 96.986508,175.62424 c 8.009242,-15.56533 19.274772,-30.01716 32.479792,-41.66635 3.11058,-2.74407 5.34093,-4.54562 11.13934,-8.99764 7.57518,-5.81621 10.31598,-7.55162 12.75862,-8.07848 2.84693,-0.61401 5.60719,0.91095 14.8656,8.21282 9.46149,7.46205 14.08458,11.64812 20.53217,18.59136 8.8293,9.50803 17.63929,22.1283 22.70029,32.51805 l 0.77665,1.59439 H 154.05336 95.867784 Z"
       id="path2227" />
  </g>
</svg>
